<?xml version="1.0" encoding="utf-8"?>
<!-- Generator: Adobe Illustrator 19.1.0, SVG Export Plug-In . SVG Version: 6.00 Build 0)  -->
<svg version="1.1" id="Layer_1" xmlns="http://www.w3.org/2000/svg" xmlns:xlink="http://www.w3.org/1999/xlink" x="0px" y="0px"
	 viewBox="0 0 595.3 841.9" style="enable-background:new 0 0 595.3 841.9;" xml:space="preserve">
<g>
	<rect x="358.3" y="416.2" style="&st0;" width="61.2" height="21.7"/>
	<path style="&st0;" d="M358.3,244.1H235.6V291h97.7c5.7,0,11.2,1.9,15.2,5.3c6.3,5.4,9.9,12.7,9.9,20.2v86.6h61.2V244.1H358.3z"/>
</g>
<g>
	<path style="&st1;" d="M332.4,484.2c-4.4,5.3-7,1.2-15.6,5.8c-8.5,4.7-17.3,12.9-42.3,28.1c-31.4,21.5-48.2,27.2-53.5,35.8
		c-0.3-1.5,2.2-7.3,8.5-13.6c8.6-8.7,23.6-19.3,41.2-30.5c16.9-10.7,33.5-21.6,45.1-25.7C325.1,480.8,329.5,479.5,332.4,484.2z"/>
	<path style="&st2;" d="M162.2,321.5c-6.4,4.7-29.6,20.7-39.1,27.5c-6.5-9.6-14.8-21.3-22.2-31.8c1.6-13.8,27.8-32.5,39.8-26.4
		C149.5,303.3,156.9,313.9,162.2,321.5z"/>
	<path style="&st2;" d="M218.4,394.6l-44.7,32.1c0,0-14.6-21.4-22.3-32.3c1.7-16.1,35.3-36.6,44.7-30.9
		C202.7,372.9,218.4,394.6,218.4,394.6z"/>
	<path style="&st1;" d="M218.4,394.6c3.2,4.5-4.2,15.3-16.5,24.2s-25,12.4-28.2,7.9c-3.2-4.5,3.6-15.9,16-24.8
		S215.2,390.1,218.4,394.6z"/>
	
		<ellipse transform="matrix(0.8121 -0.5835 0.5835 0.8121 -252.3225 257.3199)" style="&st1;" cx="273.4" cy="520.4" rx="22.6" ry="4.5"/>
	<path style="&st2;" d="M361.1,613.2c2.1,19.4-17.4,22.2-26.6,18.9c-1-0.4-1.9-1-2.6-1.9c-17.1-23.3-42.6-58.5-57.1-78.7
		c-0.2-0.3-0.3-0.6-0.4-0.9c-1.9-7.4-10-14.8-11.4-16c-0.1-0.1-0.3-0.3-0.4-0.4c0,0-1.8-2.3-3.5-4.9c0.7-3,18.7-18,27.2-19.1
		c1.6,2.3,5.3,7.6,5.3,7.6c0.1,0.2,0.2,0.3,0.3,0.5c0.5,1.6,3.2,9.4,9,12.9c0.2,0.1,0.4,0.3,0.6,0.6c14.6,20.2,42.9,57.4,58.5,78.9
		C360.7,611.3,361,612.2,361.1,613.2z"/>
	<path style="&st1;" d="M333.6,626.4c1.3,1.7,8.1,7.8,19.3,2.5c-1.5,0.7-10.4,5.9-16.9,1.3c-0.6-0.4-0.7-0.2-3.2-3.2
		c-17.1-23.3-40.6-56.3-54.8-76.3c-0.2-0.3-0.7-0.6-0.8-0.9c0-6.3-2.9-14.1-11-16c-0.1-0.1-0.3-0.3-0.4-0.4c0,0-1.8-2.3-3.5-4.9
		c2.1-2.8,3.7-3.8,5.7-5.3c0.5,0.8,7.7,10.3,17.5,23.7c-0.9,4-2.7,9.6,8.2,23.4c0.4,0.5,0.7,1,1.1,1.5c4.7,7.6,13.1,18.1,13.8,19.9
		C322,610.1,323.6,612.4,333.6,626.4z"/>
	<path style="&st3;" d="M350.6,629.8c-5.4,1.8-9.8,1.3-13.5-0.6c-1.7-0.9-3.1-2.2-4.3-3.7c-9.5-13.5-12.7-18-20.7-28.9
		c-1.2-1.4-2.3-2.9-3.3-4.4c-0.2-0.3-0.4-0.7-0.6-1.1c-2.8-6-32.7-37.5-15.3-48c9.3-7.1,25,10.3,41.9,33.9c7,9,20.6,26.2,24.3,35.9
		c1.9,5.5,1,8.4-2.3,12.8C355.2,627.7,353,629,350.6,629.8z"/>
	<path style="&st2;" d="M286,497.6l-39.6,25.2c0,0-44.1-62.5-70.9-100.6c2-11.6,26.9-29.1,38.4-27.1
		C238.7,430.2,286,497.6,286,497.6z"/>
	<path style="&st2;" d="M291.8,507.2c-1.7-3.3-31.3,13.7-36.8,26.4c-1.5-2.1-1.9-2.8-3.1-4.5c2.8-9.2,32.3-28.3,37.1-25.8
		C290,504.8,290.7,505.8,291.8,507.2z"/>
	
		<ellipse transform="matrix(0.8121 -0.5835 0.5835 0.8121 -168.801 146.2033)" style="&st1;" cx="142.6" cy="335.2" rx="23.9" ry="8.9"/>
	<path style="&st2;" d="M178.8,367.8l-18.1,12.7c0,0-19.1-26.8-26.8-37.9c0.9-5.4,12.6-13.7,18.1-12.7
		C159.6,340.7,178.8,367.8,178.8,367.8z"/>
	<path style="&st2;" d="M332.4,484.2c-5.2-6.6-18.3,0.6-19.6,1.4c-9.4,5.3-13.5,7.9-22.7,13.1c-0.8,0.4-1.5,0.9-2.3,1.3
		c-4.6,2.9-14.4,8.6-18.3,10.8c-1.2,0.7-2.3,1.4-3.4,2.1c-6,4.1-26.2,18.3-35.6,26.2c-11,10.6-11.1,22-11.1,22s-2.5-0.6-3-1.3
		c0.6-1.6-2-13.5,25.3-33.8c7.6-5.7,24-17.2,29.3-20.5c1.7-1.1,3.1-1.9,4.8-2.9c6-3.4,21.7-12.5,33.3-18.9c3.8-2.1,7.8-3.6,12-4.5
		c3.9-0.8,8-1.2,10,0.3C332.9,480.9,333.1,484.3,332.4,484.2z"/>
	<path style="&st1;" d="M140.2,336.8c-0.9,0.4-3.1,2.9-3.2,3.7l0,0l25.9,36.5l1.2-1c0.3-0.3,0.6-0.5,1-0.8l1.3-1
		C166.3,374,140.5,337.3,140.2,336.8z"/>
	<circle style="&st1;" cx="340.7" cy="610.8" r="6.2"/>
	<circle style="&st2;" cx="340.7" cy="612.3" r="6.2"/>
	<path style="&st1;" d="M309.6,547.8c6.6,7.8,8.5,12.1,17.8,25.7c5.1,2.6,17.9,21.5,19.3,23.6c-0.3,1-1.6,2.9-2.7,3.1
		c-0.2,0-14.4-21.5-19.8-24.7c-6-8.3-9.4-13.4-9.5-13.5c-4,2.9-9.8,7.2-12.1,8.8c-1.4-1.2-1.7-1.4-3.7-3c5.7,1.7,11.9-5,12-7.4
		c0.2-3.3-0.3-6.1-3.2-9.9c-0.8-1.1-1.8-2-2.8-2.8c-10.2-7.6-18.8,3.7-14.4,15.2c-4.8-6.1-4.1-14.9,1-18.9
		C297.6,539.1,304.6,541.8,309.6,547.8z"/>
	<path style="&st1;" d="M163.6,379.3L163.6,379.3c0,0-0.1-0.1-0.1-0.1l0-0.1c-0.2-0.3-0.2-0.3-0.5-0.7c-2.8,2.3-5.5,5.6-7.2,8.2
		l0.2,0.3l18.8,27.4l7.2-8.4L163.6,379.3z"/>
	<path style="&st1;" d="M261.6,518.9c-2.5,1.9-5.3,4.5-7.5,7.5l2.4,3.5c0,0,2-3.5,7.3-7.8C261.7,519,261.7,519,261.6,518.9z"/>
	<path style="&st1;" d="M113.4,302.9L113.4,302.9c0,0-0.1-0.1-0.1-0.1l0-0.1c-0.2-0.3-0.2-0.3-0.5-0.7c-0.9,0.6-2.3,2-3.7,3.6
		c-2.1,2.3-3.5,4.5-3.3,4.9l0,0l18.8,27.4l7.3-8.3L113.4,302.9z"/>
	<path style="&st4;" d="M115.3,300c-0.8,0.6-0.6,0.5-1.3,1.1l0.3,0.4l18.7,27.2l1.4-1.1C134.4,327.6,115.6,300.4,115.3,300z"/>
	<path style="&st4;" d="M165.6,376.3c-0.5,0.4-1,0.8-1.4,1.1l18.7,27.1l1.5-1.1C184.3,403.4,165.8,376.7,165.6,376.3z"/>
	<path style="&st1;" d="M186.5,411.2c-7.1,6.7-6.6,9.6-6.6,9.6l70,99.3l8.4-5.9C258.4,514.2,187.4,412.5,186.5,411.2z"/>
	<path style="&st2;" d="M182.5,406.7c-0.6,0.9-1.7,2.4-3.1,3.9c-2.2,2.5-5,4.7-5.3,4.4s1.7-3.3,3.9-5.8c1.5-1.6,5.2-5.3,7-6.4
		C185.3,403.3,182.2,406.2,182.5,406.7z"/>
	<path style="&st2;" d="M132.6,330.8c-0.6,0.9-1.8,2.3-3.3,3.7c-2.4,2.4-4.5,4-4.8,3.7s1.1-2.8,3.5-5.2c1.5-1.5,3.1-3,4-3.6
		C132.3,329.9,132.3,330.3,132.6,330.8z"/>
</g>
<rect x="240.6" y="256" style="&st5;" width="64" height="31.8"/>
<text transform="matrix(1 0 0 1 240.6289 277.4526)" style="&st6; &st7; &st8;">196</text>
</svg>
