<?xml version="1.0" encoding="utf-8"?>
<!-- Generator: Adobe Illustrator 19.1.0, SVG Export Plug-In . SVG Version: 6.00 Build 0)  -->
<svg version="1.1" id="Layer_1" xmlns="http://www.w3.org/2000/svg" xmlns:xlink="http://www.w3.org/1999/xlink" x="0px" y="0px"
	 viewBox="0 0 595.3 841.9" style="enable-background:new 0 0 595.3 841.9;" xml:space="preserve">
<g>
	<path style="&st0;" d="M389,540.6l-149.2-63.1c-10.5-3.8-11.1-10-5.5-21.8l95.9-194.9c3.5-6.7,9.3-8.4,19-5.6L494,292.7
		c12.5,3.2,20.7,7.3,15.1,21.7L409,535.1C404.7,543.1,399.1,544.8,389,540.6z"/>
	<path style="&st1;" d="M387,537.2l-147.7-62c-10.4-3.8-10.4-8.2-4.8-20.1l95.7-196.4c3.5-6.7,9.3-8.4,18.9-5.7l142.5,39
		c12.4,3.1,21.5,4.7,15.8,19.1L406.9,531.6C402.5,539.6,397,541.3,387,537.2z"/>
	<polygon style="&st0;" points="392.3,512.5 255.6,456.1 342.1,274.9 483.7,314.4 	"/>
	<path style="&st2;" d="M352.9,311.2l-7.4-2.4c-1.6-0.5-2.4-2.4-1.7-3.9l4.5-9.4c0.6-1.3,2-1.9,3.4-1.5l7.3,2.2
		c1.6,0.5,2.5,2.3,1.8,3.9l-4.4,9.6C355.7,311,354.3,311.6,352.9,311.2z"/>
	<path style="&st2;" d="M384.1,320.5l-7.4-2.4c-1.6-0.5-2.4-2.4-1.7-3.9l4.5-9.4c0.6-1.3,2-1.9,3.4-1.5l7.3,2.2
		c1.6,0.5,2.5,2.3,1.8,3.9l-4.4,9.6C386.9,320.3,385.4,321,384.1,320.5z"/>
	<path style="&st3;" d="M416.6,330.3l-7.4-2.4c-1.6-0.5-2.4-2.4-1.7-3.9l4.5-9.4c0.6-1.3,2-1.9,3.4-1.5l7.3,2.2
		c1.6,0.5,2.5,2.3,1.8,3.9l-4.4,9.6C419.5,330.1,418,330.8,416.6,330.3z"/>
	<path style="&st2;" d="M449.6,340.9l-7.4-2.4c-1.6-0.5-2.4-2.4-1.7-3.9l4.5-9.4c0.6-1.3,2-1.9,3.4-1.5l7.3,2.2
		c1.6,0.5,2.5,2.3,1.8,3.9l-4.4,9.6C452.5,340.7,451,341.3,449.6,340.9z"/>
	<path style="&st2;" d="M338.6,339.7l-7.4-2.4c-1.6-0.5-2.4-2.4-1.7-3.9l4.5-9.4c0.6-1.3,2-1.9,3.4-1.5l7.3,2.2
		c1.6,0.5,2.5,2.3,1.8,3.9l-4.4,9.6C341.4,339.5,340,340.1,338.6,339.7z"/>
	<path style="&st2;" d="M370.3,350.2l-7.4-2.4c-1.6-0.5-2.4-2.4-1.7-3.9l4.5-9.4c0.6-1.3,2-1.9,3.4-1.5l7.3,2.2
		c1.6,0.5,2.5,2.3,1.8,3.9l-4.4,9.6C373.1,350,371.6,350.6,370.3,350.2z"/>
	<path style="&st2;" d="M324.4,368.9l-7.4-2.4c-1.6-0.5-2.4-2.4-1.7-3.9l4.5-9.4c0.6-1.3,2-1.9,3.4-1.5l7.3,2.2
		c1.6,0.5,2.5,2.3,1.8,3.9l-4.4,9.6C327.2,368.7,325.7,369.3,324.4,368.9z"/>
	<polygon style="&st4;" points="355.5,281.8 342.5,277.8 343.3,276.2 356.3,279.9 	"/>
	<polygon style="&st4;" points="415.8,298.7 402.8,294.9 403.9,293 416.7,296.6 	"/>
	<polygon style="&st4;" points="481.1,317.4 474.7,315.5 475.7,313.6 482,315.5 	"/>
	
		<ellipse transform="matrix(0.9058 0.4236 -0.4236 0.9058 239.4856 -86.7043)" style="&st0;" cx="314.8" cy="495.4" rx="6.3" ry="6.6"/>
	
		<rect x="312.2" y="492.6" transform="matrix(0.923 0.3848 -0.3848 0.923 214.8639 -82.9864)" style="&st5;" width="5.2" height="5.6"/>
	
		<rect x="502.9" y="324.7" transform="matrix(0.9108 0.4128 -0.4128 0.9108 180.1533 -178.8091)" style="&st1;" width="2.1" height="5.6"/>
	<polygon style="&st1;" points="491.8,356.6 489.5,355.5 498.6,335.5 500.8,336.5 495.9,346.4 	"/>
</g>
<g>
	<path style="&st6;" d="M241.5,544.2c-5.7,0-11.2-1.9-15.2-5.3v0c-6.3-5.4-9.9-12.7-9.9-20.2v-86.6H166v159.1h50.4h122.7v-46.9
		H241.5z"/>
	<rect x="166" y="397.4" style="&st6;" width="50.4" height="21.7"/>
</g>
<rect x="267.3" y="559.3" style="&st7;" width="60.7" height="31.8"/>
<text transform="matrix(1 0 0 1 267.3042 579.1118)" style="&st8; &st9; &st10;">2002</text>
</svg>
