<?xml version="1.0" encoding="utf-8"?>
<!-- Generator: Adobe Illustrator 19.1.0, SVG Export Plug-In . SVG Version: 6.00 Build 0)  -->
<svg version="1.1" id="Layer_1" xmlns="http://www.w3.org/2000/svg" xmlns:xlink="http://www.w3.org/1999/xlink" x="0px" y="0px"
	 viewBox="0 0 595.3 841.9" style="enable-background:new 0 0 595.3 841.9;" xml:space="preserve">
<g>
	<path style="&st0;" d="M266.7,553.7c-5.7,0-11.2-1.9-15.2-5.3h0c-6.3-5.4-9.9-12.7-9.9-20.2v-86.6h-51.4v159.1h51.4h122.7v-46.9
		H266.7z"/>
	<rect x="190.2" y="406.9" style="&st0;" width="51.4" height="21.7"/>
</g>
<rect x="295.4" y="567.1" style="&st1;" width="60.7" height="31.8"/>
<text transform="matrix(1 0 0 1 295.4248 586.8989)" style="&st2; &st3; &st4;">2012</text>
<g>
	<g>
		
			<ellipse transform="matrix(0.7476 -0.6641 0.6641 0.7476 -234.3116 450.1512)" style="&st5;" cx="475.1" cy="533.4" rx="25.8" ry="20.6"/>
		<path style="&st6;" d="M526.1,502.6l-22.9,20.3v0c-9.7,16.5-24.3,29.5-41.7,37.3l-0.5,0.2l-21.3,19l-24.5-27.6h0
			c9.3-8.2,10.2-22.4,1.9-31.6l-7-7.9l8.1-41.3l43.8-4.3l6.8,7.6c8.2,9.2,22.3,10,31.5,1.8l1.2-1.1L526.1,502.6z"/>
		
			<ellipse transform="matrix(0.7476 -0.6641 0.6641 0.7476 -124.3597 242.762)" style="&st6;" cx="257.2" cy="285" rx="25.8" ry="10.8"/>
		<path style="&st5;" d="M521.5,498.1L504,513.6l-14.4,18.6c-4.6,6-10.3,11-16.8,15l-20.5,12.4l-16.4,14.6L421.4,558c0,0,0,0,0,0
			c9.1,3,17.5-33.9,14.2-45.2c-0.8-2.8-4-4.4-6.7-3.3c-1.8,0.7-3.5,2.1-4.8,3.3c-2.2,2-5.1,3.2-8.1,3c0,0-0.1,0-0.1,0l0,0
			c-1.9-0.1-3.7-1-5-2.5l-27.6-31.1l51.8-46l27.8,31.4c2.5,2.9,2.3,5.3,1.5,8.2l-0.2,0.5c-0.7,1.8-2.7,4.2-4.3,5.2
			c-2.9,2.4-5.4,4.3-4.1,7.7c0.3,0.7,0.6,1.4,1.1,1.9c0.1,0.2,0.2,0.3,0.3,0.4c8.6,7.8,52,1.9,50.3-9.1c0,0,0,0,0,0L521.5,498.1z"/>
		<path style="&st6;" d="M435.1,436.1c0.8,0.9,1.4,1.6,2.1,2.3c-0.7,6.3-9.5,18.7-20.8,28.8c-11.4,10.1-24.7,17.4-31,17.3
			c-0.9-1-1.3-1.5-2.1-2.4c-4-4.5,4.4-18.4,18.7-31.1C416.3,438.3,431.1,431.6,435.1,436.1z"/>
		<path style="&st5;" d="M430.3,438.2l-0.3,0.6c-9.2,17.9-24.7,31.7-43.4,38.9h0l-121.8-129l-28.2-48.9l0.8-1.2
			c8.8-13.1,20.8-23.7,34.8-30.8l2.4-1.2l44.6,33.7L430.3,438.2z"/>
		<path style="&st6;" d="M389.4,430.8l-5.7,5.1c-7.8,6.9-19.6,6.2-26.5-1.6l-51.6-58.1c-6.9-7.8-6.2-19.6,1.6-26.5l5.7-5.1
			c7.8-6.9,19.6-6.2,26.5,1.6l51.6,58.1C397.9,412,397.2,423.9,389.4,430.8z"/>
		<path style="&st5;" d="M391.2,429.2l-5.7,5.1c-7.8,6.9-19.6,6.2-26.5-1.6l-51.6-58.1c-6.9-7.8-6.2-19.6,1.6-26.5l5.7-5.1
			c7.8-6.9,19.6-6.2,26.5,1.6l51.6,58.1C399.6,410.5,398.9,422.3,391.2,429.2z"/>
		<path style="&st6;" d="M314.7,302.1c-16.3-12.8-22.1-17-38.5-30.1c11.3,12.9,17.2,16.9,31.9,34.1
			C308.7,305.9,309,305.1,314.7,302.1z"/>
	</g>
	<path style="&st7;" d="M381,419.4l-5.4,4.8c-2.3,2.1-5.9,1.9-8-0.5l-51.9-58.4c-2.1-2.3-1.9-5.9,0.5-8l5.4-4.8
		c2.3-2.1,5.9-1.9,8,0.5l51.9,58.4C383.6,413.8,383.4,417.3,381,419.4z"/>
</g>
</svg>
