<?xml version="1.0" encoding="utf-8"?>
<!-- Generator: Adobe Illustrator 19.1.0, SVG Export Plug-In . SVG Version: 6.00 Build 0)  -->
<svg version="1.1" id="Layer_1" xmlns="http://www.w3.org/2000/svg" xmlns:xlink="http://www.w3.org/1999/xlink" x="0px" y="0px"
	 viewBox="0 0 595.3 841.9" style="enable-background:new 0 0 595.3 841.9;" xml:space="preserve">
<g>
	<path style="&st0;" d="M271.5,493.9c-5.7,0-11.2-1.9-15.2-5.3h0c-6.3-5.4-9.9-12.7-9.9-20.2v-86.6h-51.4v159.1h51.4h122.7v-46.9
		H271.5z"/>
	<rect x="195.1" y="347" style="&st0;" width="51.4" height="21.7"/>
</g>
<rect x="300.3" y="507.3" style="&st1;" width="60.7" height="31.8"/>
<text transform="matrix(1 0 0 1 300.2607 527.0923)" style="&st2; &st3; &st4;">2012</text>
<g>
	<g>
		<path style="&st5;" d="M393.4,473.8c-84.7,0-144.5-45.3-127.6-103.7c-2.8-84.4,253.2-159.3,261.5-4
			C529.1,413.9,481,472.2,393.4,473.8z"/>
		
			<ellipse transform="matrix(-0.9432 0.3323 -0.3323 -0.9432 657.3788 648.3864)" style="&st6;" cx="273.2" cy="380.4" rx="3.5" ry="11.6"/>
		
			<ellipse transform="matrix(1 8.601214e-03 -8.601214e-03 1 2.9548 -3.3195)" style="&st5;" cx="387.4" cy="341.9" rx="131.5" ry="75.6"/>
		
			<ellipse transform="matrix(1 5.658899e-03 -5.658899e-03 1 1.9186 -2.1928)" style="&st7;" cx="388.5" cy="337.9" rx="127.6" ry="71.7"/>
		<path style="&st8;" d="M316.3,420.7l-19.2-12.5c-0.1-0.1-0.2-0.2-0.3-0.3l-2.5-4.6c-0.1-0.1-0.1-0.2-0.1-0.3l-0.3-3.2
			c0-0.2,0.2-0.4,0.4-0.3l24.3,15.9c0.2,0.1,0.3,0.3,0.4,0.6l0.4,3c0,0.4-0.1,0.7-0.5,0.9l-2,0.9
			C316.8,420.9,316.5,420.9,316.3,420.7z"/>
		<path style="&st9;" d="M317.4,422.4L296,408.3c-0.1-0.1-0.3-0.2-0.3-0.4l-2.6-5.4c-0.1-0.1-0.1-0.2-0.1-0.4l-0.2-3.6
			c0-0.4,0.4-0.7,0.8-0.5l27,17.2c0.3,0.2,0.4,0.4,0.4,0.7l0.3,4.2c0,0.4-0.2,0.8-0.5,0.9l-2.4,1.2
			C318,422.6,317.7,422.6,317.4,422.4z"/>
		<path style="&st8;" d="M310.6,440.2c-2.3,3.1-5.9,1.5-11.8-2.6c-7.3-4.9-7.4-7.1-6.2-10.7c0.2-0.5,0.5-0.9,1-1
			c1.9-0.5,3.6,3.1,8.7,6.6C308.6,436.4,312.8,436.8,310.6,440.2z"/>
		
			<ellipse transform="matrix(0.9963 8.586381e-02 -8.586381e-02 0.9963 28.3087 -33.9562)" style="&st8;" cx="408.9" cy="312.1" rx="48.9" ry="26"/>
		<path style="&st5;" d="M435.2,319.5c-1.8,5.5-12.2,10.9-30.6,4.5c-13.8-4.6-22.3-10.7-20.5-16.1c2.9-5.3,11.5-9.9,27-4
			C425.2,309.4,437,314,435.2,319.5z"/>
	</g>
	<path style="&st8;" d="M367.2,437c-1.2,3.7-5,1.9-11.9-0.1c-8.5-2.3-9.6-3.1-9.6-6.9c0-0.5,0.2-1,0.7-1.3c1.6-1.1,4.7,0.5,10.6,2.2
		C364.2,432.7,368.1,433.1,367.2,437z"/>
	<path style="&st10;" d="M367.2,437c-1.2,3.7-5,1.9-11.9-0.1c-8.5-2.3-9.6-3.1-9.6-6.9c0-0.5,0.2-1,0.7-1.3
		c1.6-1.1,4.7,0.5,10.6,2.2C364.2,432.7,368.1,433.1,367.2,437z"/>
</g>
</svg>
