<?xml version="1.0" encoding="utf-8"?>
<!-- Generator: Adobe Illustrator 19.1.0, SVG Export Plug-In . SVG Version: 6.00 Build 0)  -->
<svg version="1.1" id="Layer_1" xmlns="http://www.w3.org/2000/svg" xmlns:xlink="http://www.w3.org/1999/xlink" x="0px" y="0px"
	 viewBox="0 0 595.3 841.9" style="enable-background:new 0 0 595.3 841.9;" xml:space="preserve">
<g>
	<g>
		
			<ellipse transform="matrix(1 6.293977e-03 -6.293977e-03 1 2.6001 -1.8193)" style="&st0;" cx="290.3" cy="412.2" rx="40.5" ry="27.4"/>
		<ellipse style="&st1;" cx="290.3" cy="410.3" rx="36.6" ry="24.8"/>
		<path style="&st0;" d="M318.3,451.5c-9.5-18.1-18.3-33.9-20-34.8c0,0-0.1-0.1-0.1-0.1c-0.5-0.5-1.4-0.2-2,0.2
			c-2.6,1.7-11.2,10.7-34,36c-0.4,0.5-1.2,0.2-1.2-0.5c-0.5-23.6,14.5-67.2,27.9-86.7c0.6-0.9,2-0.9,2.6,0
			c12.1,17.3,29.3,61.1,27.9,85.7C319.3,451.8,318.8,452,318.3,451.5z"/>
	</g>
	<g>
		<path style="&st1;" d="M314.8,435.6c-0.1-0.1-0.2-0.2-0.3-0.3c-7.7-14.5-16.2-26.3-17.6-27c0,0-0.1,0-0.1-0.1
			c-0.4-0.4-1.2-0.1-1.6,0.2c-2.1,1.4-9,8.7-27.1,29.1c-0.3,0.4-1,0.2-1-0.4c-0.5-18,10.1-50.4,20.2-67.1c1.3-2.1,4.3-2.1,5.7-0.1
			c9.7,15.3,23.4,46.7,22.5,65.3C315.4,435.6,315.1,435.8,314.8,435.6z"/>
		<rect x="267" y="363.7" style="&st2;" width="47" height="74"/>
	</g>
</g>
<g>
	<path style="&st3;" d="M295,400.5l-11-11c-0.2-0.2-0.2-0.4,0-0.6l1.5-1.5c0.2-0.2,0.4-0.2,0.6,0l11,11c0.2,0.2,0.2,0.4,0,0.6
		l-1.5,1.5C295.5,400.6,295.2,400.6,295,400.5z"/>
	<path style="&st3;" d="M283.6,398.3l11-11c0.2-0.2,0.5-0.2,0.6,0l1.5,1.5c0.2,0.2,0.2,0.5,0,0.6l-11,11c-0.2,0.2-0.5,0.2-0.6,0
		l-1.5-1.5C283.4,398.8,283.4,398.5,283.6,398.3z"/>
</g>
</svg>
