<?xml version="1.0" encoding="utf-8"?>
<!-- Generator: Adobe Illustrator 19.1.0, SVG Export Plug-In . SVG Version: 6.00 Build 0)  -->
<svg version="1.1" id="Layer_1" xmlns="http://www.w3.org/2000/svg" xmlns:xlink="http://www.w3.org/1999/xlink" x="0px" y="0px"
	 viewBox="0 0 595.3 841.9" style="enable-background:new 0 0 595.3 841.9;" xml:space="preserve">
<g>
	<path style="&st0;" d="M400,223.3H277.3v46.9H375c5.7,0,11.2,1.9,15.2,5.3l0,0c6.3,5.4,9.9,12.7,9.9,20.2v86.6h61.2V223.3H400z"/>
</g>
<text transform="matrix(1 0 0 1 282.3936 256.7134)" style="&st2; &st3; &st4;">196</text>
<g>
	<path style="&st5;" d="M302.1,603.5l-164.4-6c-8.8-0.3-15.7-11.4-13.1-19.8l73.2-228.6c2-6.3,7.5-10.8,14.1-11.4l154.4-17.4
		c6.3,0.6,10,7,8.8,12.6l-51.8,256.3C321.3,598.6,311.7,603.9,302.1,603.5z"/>
	<path style="&st6;" d="M301.3,601.1l-164.4-6c-8.8-0.3-14.9-8.9-12.3-17.4l72.4-231c2-6.3,7.5-10.8,14.1-11.4l154.1-15
		c5.7-0.6,10.2,4.5,9.1,10.1l-53.1,255.1C319.3,594.9,310.9,601.4,301.3,601.1z"/>
	<path style="&st5;" d="M308.1,478.9L171,482.8c-8.5,0.5-6.8-1.7-6-5.5l0.9-3.1c1.5-4.5,0.2-7.2,12.4-7.6l141.4-5.6
		c7.7-0.4,13.6-1.1,11.4,6.3l-1.3,5.4C328.4,479.7,327.1,478.1,308.1,478.9z"/>
	<path style="&st5;" d="M293.3,585.5l-87.5-2.6c-6-0.5-6.9-2.2-6.5-6.8l15.9-55.3c1.3-3.6,1.7-5.9,9-6.2l87.6-0.7
		c2,0.1,8.7-0.2,6.2,9.8l-11.3,54.3C305.3,581.5,303.4,586.4,293.3,585.5z"/>
	<path style="&st5;" d="M318.4,446L182,452.6c-7.4,0.4-7.1-4.6-6.6-8l29-92.7c1.7-5.8,2-7.6,12.8-8.8l130.2-12.4
		c3,0,13.4-1.6,10.7,8.2L337,437.6C335.2,443.4,333.4,446.2,318.4,446z"/>
	<polygon style="&st6;" points="324.8,474.6 172.3,478.9 173.7,473.7 326,468.3 	"/>
	<polygon style="&st7;" points="194.8,480.3 177.5,480.8 179.3,472 196.2,471.3 	"/>
	<polygon style="&st8;" points="218.9,479.3 199,479.9 200.2,471.4 220.2,470.3 	"/>
	<polygon style="&st8;" points="252.4,478.4 236.1,478.5 237.4,470 253.7,469.4 	"/>
	<polygon style="&st5;" points="275.5,476.1 268.9,477.5 270.1,469 276.8,467.1 	"/>
	<polygon style="&st5;" points="289.9,476.2 283.3,477.7 284.5,469.2 291.2,467.2 	"/>
	<polygon style="&st7;" points="233,478.4 223.6,478.9 224.9,470.4 234.3,469.9 	"/>
	<polygon style="&st7;" points="314.4,476.1 300.7,476.4 301.9,468.2 315.4,467.6 	"/>
	<path style="&st6;" d="M217.6,579.6l62.9,1.1l0,0l3.8-16.8v0l-60.7,0.1c-3,0-5.3,0.2-8.9,1.4h0c-0.3,0.1-0.6,0.3-0.9,0.4
		c-5.5,2.8-5.5,10.8,0.1,13.3C214.9,579.4,217.5,579.6,217.6,579.6z"/>
	<path style="&st9;" d="M222.6,558.5l62.9,1.1l0,0l3.8-16.8l0,0l-60.7,0.1c-3,0-5.3,0.2-8.9,1.4l0,0c-0.3,0.1-0.6,0.3-0.9,0.4
		c-5.5,2.8-5.5,10.8,0.1,13.3C219.9,558.3,222.5,558.5,222.6,558.5z"/>
	<path style="&st6;" d="M227.9,537.9l62.9,1.1v0l3.8-16.8l0,0l-60.7,0.1c-3,0-5.3,0.2-8.9,1.4l0,0c-0.3,0.1-0.6,0.3-0.9,0.4
		c-5.5,2.8-5.5,10.8,0.1,13.3C225.1,537.7,227.7,537.9,227.9,537.9z"/>
	<polygon style="&st5;" points="271.6,582 267.8,582.9 282.3,520.7 286,520.5 	"/>
	<polygon style="&st5;" points="324.2,467.6 171.6,472.2 173,467.3 325,461.6 	"/>
	<polygon style="&st5;" points="318.2,478 169.2,481.3 170.7,479.8 319.1,476.3 	"/>
</g>
<g>
	<g>
		<path style="&st7;" d="M296.1,389.6c-1.4,9.3-16.1,15.9-32.7,14.9c-16.6-1-28.9-9.4-27.5-18.6c1.4-9.3,16.1-15.9,32.7-14.9
			C285.3,372,297.6,380.3,296.1,389.6z"/>
		<path style="&st9;" d="M293.4,388.1c-1.2,8.4-14.4,14.5-29.4,13.6s-26.2-8.3-24.9-16.7c1.2-8.4,14.4-14.5,29.4-13.6
			C283.5,372.2,294.6,379.7,293.4,388.1z"/>
		<path style="&st7;" d="M283.3,412.9c-5.4-11.5-10.5-21.5-11.7-22.1c0,0-0.1,0-0.1-0.1c-0.3-0.3-1.1-0.2-1.5,0.1
			c-2.1,0.9-9.3,6.1-28.5,20.5c-0.4,0.3-0.9,0.1-0.9-0.3c1.8-14.5,16.9-40.5,28.5-51.8c0.6-0.5,1.6-0.5,2,0.1
			c7.5,11.1,16.3,38.6,13,53.5C284,413.1,283.6,413.2,283.3,412.9z"/>
	</g>
	<g>
		<path style="&st9;" d="M282.1,403c-0.1,0-0.1-0.1-0.2-0.2c-4.4-9.2-9.7-16.7-10.7-17.2c0,0,0,0-0.1-0.1c-0.2-0.3-0.8-0.1-1.2,0.1
			c-1.7,0.8-7.4,4.9-22.8,16.6c-0.3,0.2-0.7,0.1-0.7-0.3c1.3-11,12.1-30.4,21.1-40.2c1.1-1.2,3.4-1.1,4.2,0.2
			c5.8,9.7,13.2,29.5,10.8,40.8C282.6,403.1,282.3,403.2,282.1,403z"/>
		<polygon style="&st1;" points="281.4,404.3 246.4,402.3 253.1,357.1 288.1,359.1 		"/>
	</g>
</g>
<polygon style="&st9;" points="326.5,418.4 199.9,425.6 201.3,420.2 327.7,412.6 "/>
<polygon style="&st9;" points="309.4,429.6 210.9,434.7 212,429.3 310.4,423.7 "/>
<polygon style="&st9;" points="282.6,440.5 231.8,443 232.6,437.8 283.6,434.9 "/>
</svg>
