<?xml version="1.0" encoding="utf-8"?>
<!-- Generator: Adobe Illustrator 19.1.0, SVG Export Plug-In . SVG Version: 6.00 Build 0)  -->
<svg version="1.1" id="Layer_1" xmlns="http://www.w3.org/2000/svg" xmlns:xlink="http://www.w3.org/1999/xlink" x="0px" y="0px"
	 viewBox="0 0 595.3 841.9" style="enable-background:new 0 0 595.3 841.9;" xml:space="preserve">
<g>
	<rect x="401" y="389.3" style="&st0;" width="61.2" height="21.7"/>
	<path style="&st0;" d="M401,217.2H278.3v46.9H376c5.7,0,11.2,1.9,15.2,5.3c6.3,5.4,9.9,12.7,9.9,20.2v86.6h61.2V217.2H401z"/>
</g>
<rect x="283.4" y="229.1" style="&st1;" width="64" height="31.8"/>
<text transform="matrix(1 0 0 1 283.373 250.5762)" style="&st2; &st3; &st4;">196</text>
<g>
	<g>
		<rect x="125.3" y="291.2" style="&st5;" width="253.2" height="284.2"/>
		<rect x="126.6" y="293.1" style="&st6;" width="250.1" height="281"/>
		<rect x="137.7" y="305.6" style="&st5;" width="228" height="254.5"/>
		<rect x="145.8" y="312.8" style="&st7;" width="212.2" height="242.1"/>
		<g>
			<path style="&st1;" d="M158.9,382l-0.4,116.1c0,1.6,1.3,2.9,2.9,2.9h107c1.6,0,2.8,1.3,2.9,2.8l0.1,39.9c0,1.6,1.3,2.8,2.8,2.8
				l67.2,0.3c1.6,0,2.9-1.3,2.9-2.8l1.2-160.5c0-1.6-1.3-2.9-2.8-2.9l-180.9-1.5C160.2,379.1,158.9,380.4,158.9,382z"/>
			<path style="&st8;" d="M158.9,375h-1.7c-1.6,0-2.9,1.3-2.9,2.9V501v7.4c0,1.6,1.3,2.9,2.9,2.9h106.3c1.6,0,2.8,1.3,2.9,2.8
				l0.2,32.2c0,1.6,1.3,2.8,2.9,2.8h76.4c1.6,0,2.9-1.3,2.9-2.9l-0.7-168.3c0-1.6-1.3-2.8-2.8-2.9H158.9z M271.2,543.7l-0.1-39.9
				c0-1.6-1.3-2.8-2.9-2.8h-107c-1.6,0-2.9-1.3-2.9-2.9l0.4-116.1c0-1.6,1.3-2.9,2.9-2.8l180.1,0.2c1.6,0,2.8,1.3,2.8,2.9
				l-0.5,161.8c0,1.6-1.3,2.8-2.9,2.8l-67.2-0.3C272.5,546.6,271.2,545.3,271.2,543.7z"/>
		</g>
		<rect x="161.2" y="381.3" style="&st6;" width="181.6" height="117.4"/>
		<path style="&st7;" d="M304.9,469.9h-109c-7.2,0-13-5.8-13-13v-55.5c0-7.2,5.8-13,13-13h109c7.2,0,13,5.8,13,13v55.5
			C317.9,464,312.1,469.9,304.9,469.9z"/>
		<polygon style="&st8;" points="336.2,482.1 324.5,469.9 324.5,388.2 336.2,389.6 		"/>
		<path style="&st7;" d="M175.8,488.6h1.5c0.6,0,1.1,0.5,1.1,1.1v0.2h-3.8v-0.2C174.7,489.1,175.2,488.6,175.8,488.6z"/>
		<path style="&st7;" d="M180.9,488.6h1.5c0.6,0,1.1,0.5,1.1,1.1v0.2h-3.8v-0.2C179.8,489.1,180.3,488.6,180.9,488.6z"/>
		<path style="&st7;" d="M186.7,488.6h1.5c0.6,0,1.1,0.5,1.1,1.1v0.2h-3.8v-0.2C185.6,489.1,186.1,488.6,186.7,488.6z"/>
		<path style="&st7;" d="M177.9,488.6l-3.2,1.4l0,0c0-0.9-0.2-0.8,0.9-2.4l6.9-9.8h1.9l-6.2,10.4C178,488.4,178.1,488.2,177.9,488.6
			z"/>
		<path style="&st7;" d="M181.6,488.6l-1.9,1.4l0,0c0-0.9-0.2-0.8,0.9-2.4l5.9-9.8h0.5l-5.1,9.9
			C181.9,487.9,181.6,488.6,181.6,488.6z"/>
		<path style="&st7;" d="M192.3,488.6h1.5c0.6,0,1.1,0.5,1.1,1.1v0.2h-3.8v-0.2C191.2,489.1,191.7,488.6,192.3,488.6z"/>
		<path style="&st7;" d="M198.2,488.6h1.5c0.6,0,1.1,0.5,1.1,1.1v0.2H197v-0.2C197,489.1,197.5,488.6,198.2,488.6z"/>
		<path style="&st7;" d="M204,488.6h1.5c0.6,0,1.1,0.5,1.1,1.1v0.2h-3.8v-0.2C202.8,489.1,203.3,488.6,204,488.6z"/>
		<path style="&st7;" d="M210.2,488.6h1.5c0.6,0,1.1,0.5,1.1,1.1v0.2H209v-0.2C209,489.1,209.5,488.6,210.2,488.6z"/>
		<path style="&st7;" d="M216,488.6h1.5c0.6,0,1.1,0.5,1.1,1.1v0.2h-3.8v-0.2C214.8,489.1,215.4,488.6,216,488.6z"/>
		<path style="&st7;" d="M221.8,488.6h1.5c0.6,0,1.1,0.5,1.1,1.1v0.2h-3.8v-0.2C220.7,489.1,221.2,488.6,221.8,488.6z"/>
		<path style="&st7;" d="M227.3,488.6h1.5c0.6,0,1.1,0.5,1.1,1.1v0.2h-3.8v-0.2C226.1,489.1,226.6,488.6,227.3,488.6z"/>
		<path style="&st7;" d="M233.5,488.6h1.5c0.6,0,1.1,0.5,1.1,1.1v0.2h-3.8v-0.2C232.3,489.1,232.8,488.6,233.5,488.6z"/>
		<path style="&st7;" d="M239.1,488.6h1.5c0.6,0,1.1,0.5,1.1,1.1v0.2h-3.8v-0.2C237.9,489.1,238.4,488.6,239.1,488.6z"/>
		<path style="&st7;" d="M244.9,488.6h1.5c0.6,0,1.1,0.5,1.1,1.1v0.2h-3.8v-0.2C243.7,489.1,244.3,488.6,244.9,488.6z"/>
		<path style="&st7;" d="M250.7,488.6h1.5c0.6,0,1.1,0.5,1.1,1.1v0.2h-3.8v-0.2C249.6,489.1,250.1,488.6,250.7,488.6z"/>
		<path style="&st7;" d="M256.1,488.6h1.5c0.6,0,1.1,0.5,1.1,1.1v0.2H255v-0.2C255,489.1,255.5,488.6,256.1,488.6z"/>
		<path style="&st7;" d="M262.3,488.6h1.5c0.6,0,1.1,0.5,1.1,1.1v0.2h-3.8v-0.2C261.2,489.1,261.7,488.6,262.3,488.6z"/>
		<path style="&st7;" d="M268.2,488.6h1.5c0.6,0,1.1,0.5,1.1,1.1v0.2H267v-0.2C267,489.1,267.5,488.6,268.2,488.6z"/>
		<g>
			<path style="&st6;" d="M334.9,472.5V471c0-0.6,0.5-1.1,1.1-1.1h0.2v3.8H336C335.4,473.7,334.9,473.2,334.9,472.5z"/>
			<path style="&st6;" d="M334.9,466.1v-1.5c0-0.6,0.5-1.1,1.1-1.1h0.2v3.8H336C335.4,467.3,334.9,466.8,334.9,466.1z"/>
			<path style="&st6;" d="M334.9,460.5V459c0-0.6,0.5-1.1,1.1-1.1h0.2v3.8H336C335.4,461.6,334.9,461.1,334.9,460.5z"/>
			<path style="&st6;" d="M334.9,454.6v-1.5c0-0.6,0.5-1.1,1.1-1.1h0.2v3.8H336C335.4,455.8,334.9,455.3,334.9,454.6z"/>
			<path style="&st6;" d="M334.9,448.6v-1.5c0-0.6,0.5-1.1,1.1-1.1h0.2v3.8H336C335.4,449.8,334.9,449.2,334.9,448.6z"/>
			<path style="&st6;" d="M334.9,443.5V442c0-0.6,0.5-1.1,1.1-1.1h0.2v3.8H336C335.4,444.6,334.9,444.1,334.9,443.5z"/>
			<path style="&st6;" d="M334.9,437.4v-1.5c0-0.6,0.5-1.1,1.1-1.1h0.2v3.8H336C335.4,438.6,334.9,438.1,334.9,437.4z"/>
			<path style="&st6;" d="M334.9,431.7v-1.5c0-0.6,0.5-1.1,1.1-1.1h0.2v3.8H336C335.4,432.9,334.9,432.3,334.9,431.7z"/>
			<path style="&st6;" d="M334.9,426.1v-1.5c0-0.6,0.5-1.1,1.1-1.1h0.2v3.8H336C335.4,427.2,334.9,426.7,334.9,426.1z"/>
			<path style="&st6;" d="M334.9,420.2v-1.5c0-0.6,0.5-1.1,1.1-1.1h0.2v3.8H336C335.4,421.3,334.9,420.8,334.9,420.2z"/>
			<path style="&st6;" d="M334.9,414.4v-1.5c0-0.6,0.5-1.1,1.1-1.1h0.2v3.8H336C335.4,415.5,334.9,415,334.9,414.4z"/>
			<path style="&st6;" d="M334.9,408.9v-1.5c0-0.6,0.5-1.1,1.1-1.1h0.2v3.8H336C335.4,410,334.9,409.5,334.9,408.9z"/>
			<path style="&st6;" d="M334.9,402.7v-1.5c0-0.6,0.5-1.1,1.1-1.1h0.2v3.8H336C335.4,403.9,334.9,403.4,334.9,402.7z"/>
			<path style="&st6;" d="M334.9,396.6v-1.5c0-0.6,0.5-1.1,1.1-1.1h0.2v3.8H336C335.4,397.7,334.9,397.2,334.9,396.6z"/>
		</g>
		<polygon style="&st8;" points="164.5,482.1 176.2,469.9 176.2,388.2 164.5,389.6 		"/>
		<g>
			<path style="&st6;" d="M165.8,472.5V471c0-0.6-0.5-1.1-1.1-1.1h-0.2v3.8h0.2C165.3,473.7,165.8,473.2,165.8,472.5z"/>
			<path style="&st6;" d="M165.8,466.1v-1.5c0-0.6-0.5-1.1-1.1-1.1h-0.2v3.8h0.2C165.3,467.3,165.8,466.8,165.8,466.1z"/>
			<path style="&st6;" d="M165.8,460.5V459c0-0.6-0.5-1.1-1.1-1.1h-0.2v3.8h0.2C165.3,461.6,165.8,461.1,165.8,460.5z"/>
			<path style="&st6;" d="M165.8,454.6v-1.5c0-0.6-0.5-1.1-1.1-1.1h-0.2v3.8h0.2C165.3,455.8,165.8,455.3,165.8,454.6z"/>
			<path style="&st6;" d="M165.8,448.6v-1.5c0-0.6-0.5-1.1-1.1-1.1h-0.2v3.8h0.2C165.3,449.8,165.8,449.2,165.8,448.6z"/>
			<path style="&st6;" d="M165.8,443.5V442c0-0.6-0.5-1.1-1.1-1.1h-0.2v3.8h0.2C165.3,444.6,165.8,444.1,165.8,443.5z"/>
			<path style="&st6;" d="M165.8,437.4v-1.5c0-0.6-0.5-1.1-1.1-1.1h-0.2v3.8h0.2C165.3,438.6,165.8,438.1,165.8,437.4z"/>
			<path style="&st6;" d="M165.8,431.7v-1.5c0-0.6-0.5-1.1-1.1-1.1h-0.2v3.8h0.2C165.3,432.9,165.8,432.3,165.8,431.7z"/>
			<path style="&st6;" d="M165.8,426.1v-1.5c0-0.6-0.5-1.1-1.1-1.1h-0.2v3.8h0.2C165.3,427.2,165.8,426.7,165.8,426.1z"/>
			<path style="&st6;" d="M165.8,420.2v-1.5c0-0.6-0.5-1.1-1.1-1.1h-0.2v3.8h0.2C165.3,421.3,165.8,420.8,165.8,420.2z"/>
			<path style="&st6;" d="M165.8,414.4v-1.5c0-0.6-0.5-1.1-1.1-1.1h-0.2v3.8h0.2C165.3,415.5,165.8,415,165.8,414.4z"/>
			<path style="&st6;" d="M165.8,408.9v-1.5c0-0.6-0.5-1.1-1.1-1.1h-0.2v3.8h0.2C165.3,410,165.8,409.5,165.8,408.9z"/>
			<path style="&st6;" d="M165.8,402.7v-1.5c0-0.6-0.5-1.1-1.1-1.1h-0.2v3.8h0.2C165.3,403.9,165.8,403.4,165.8,402.7z"/>
			<path style="&st6;" d="M165.8,396.6v-1.5c0-0.6-0.5-1.1-1.1-1.1h-0.2v3.8h0.2C165.3,397.7,165.8,397.2,165.8,396.6z"/>
		</g>
		<path style="&st7;" d="M274.2,488.6h1.5c0.6,0,1.1,0.5,1.1,1.1v0.2H273v-0.2C273,489.1,273.5,488.6,274.2,488.6z"/>
		<path style="&st7;" d="M280.4,488.6h1.5c0.6,0,1.1,0.5,1.1,1.1v0.2h-3.8v-0.2C279.2,489.1,279.7,488.6,280.4,488.6z"/>
		<path style="&st7;" d="M285.8,488.6h1.5c0.6,0,1.1,0.5,1.1,1.1v0.2h-3.8v-0.2C284.7,489.1,285.2,488.6,285.8,488.6z"/>
		<path style="&st7;" d="M291.2,488.6h1.5c0.6,0,1.1,0.5,1.1,1.1v0.2h-3.8v-0.2C290.1,489.1,290.6,488.6,291.2,488.6z"/>
		<path style="&st7;" d="M297.1,488.6h1.5c0.6,0,1.1,0.5,1.1,1.1v0.2h-3.8v-0.2C295.9,489.1,296.4,488.6,297.1,488.6z"/>
		<path style="&st7;" d="M303.3,488.6h1.5c0.6,0,1.1,0.5,1.1,1.1v0.2h-3.8v-0.2C302.1,489.1,302.6,488.6,303.3,488.6z"/>
		<path style="&st7;" d="M309.1,488.6h2.3c0.6,0,1.1,0.5,1.1,1.1v0.2h-4.6v-0.2C307.9,489.1,308.4,488.6,309.1,488.6z"/>
		<path style="&st7;" d="M315.3,488.6h2.2c0.6,0,1.1,0.5,1.1,1.1v0.2h-4.5v-0.2C314.1,489.1,314.6,488.6,315.3,488.6z"/>
		<path style="&st7;" d="M321.1,488.6h2.7c0.6,0,1.1,0.5,1.1,1.1v0.2h-5v-0.2C320,489.1,320.5,488.6,321.1,488.6z"/>
		<path style="&st8;" d="M313.7,427.4l-43.6,0.5c-0.4,0-0.7-0.2-1-0.4l-0.5-0.6c-0.3-0.3-0.7-0.5-1.1-0.5h-16.8l-15.9-0.1
			c-0.4,0-0.8,0.1-1,0.4l-1,0.9c-0.2,0.2-0.6,0.4-0.9,0.3l-44.8-0.5c-0.9,0-1.5-0.7-1.5-1.6v-1.6c0-0.8,0.7-1.5,1.5-1.6
			c8.4-0.2,49-1,63.6-1c14.4,0,54.7,0.8,63.1,1c0.8,0,1.5,0.7,1.5,1.6v1.6C315.3,426.7,314.6,427.4,313.7,427.4z"/>
		<path style="&st8;" d="M313.7,431l-43.6-0.5c-0.4,0-0.7,0.2-1,0.4l-0.5,0.6c-0.3,0.3-0.7,0.5-1.1,0.5h-16.8l-15.9,0.1
			c-0.4,0-0.8-0.1-1-0.4l-1-0.9c-0.2-0.2-0.6-0.4-0.9-0.3l-44.8,0.5c-0.9,0-1.5,0.7-1.5,1.6v1.6c0,0.8,0.7,1.5,1.5,1.6
			c8.4,0.2,49,1,63.6,1c14.4,0,54.7-0.8,63.1-1c0.8,0,1.5-0.7,1.5-1.6v-1.6C315.3,431.7,314.6,431,313.7,431z"/>
		<g>
			<path style="&st8;" d="M193.9,419.1h-0.8c-1.2,0-2.1-0.9-2.1-2.1v-24.8c0-0.5,0.4-0.9,0.9-0.9h3.3c0.5,0,0.9,0.4,0.9,0.9v24.8
				C196.1,418.1,195.1,419.1,193.9,419.1z"/>
			<path style="&st8;" d="M200.5,419.1h-0.8c-1.2,0-2.1-0.9-2.1-2.1v-24.8c0-0.5,0.4-0.9,0.9-0.9h3.3c0.5,0,0.9,0.4,0.9,0.9v24.8
				C202.6,418.1,201.6,419.1,200.5,419.1z"/>
			<path style="&st8;" d="M207.3,419.1h-0.8c-1.2,0-2.1-0.9-2.1-2.1v-24.8c0-0.5,0.4-0.9,0.9-0.9h3.3c0.5,0,0.9,0.4,0.9,0.9v24.8
				C209.4,418.1,208.4,419.1,207.3,419.1z"/>
			<path style="&st8;" d="M213.9,419.1h-0.8c-1.2,0-2.1-0.9-2.1-2.1v-24.8c0-0.5,0.4-0.9,0.9-0.9h3.3c0.5,0,0.9,0.4,0.9,0.9v24.8
				C216,418.1,215.1,419.1,213.9,419.1z"/>
			<path style="&st8;" d="M220.8,419.1h-0.8c-1.2,0-2.1-0.9-2.1-2.1v-24.8c0-0.5,0.4-0.9,0.9-0.9h3.3c0.5,0,0.9,0.4,0.9,0.9v24.8
				C222.9,418.1,221.9,419.1,220.8,419.1z"/>
			<path style="&st8;" d="M281.1,419.1h-0.8c-1.2,0-2.1-0.9-2.1-2.1v-24.8c0-0.5,0.4-0.9,0.9-0.9h3.3c0.5,0,0.9,0.4,0.9,0.9v24.8
				C283.2,418.1,282.3,419.1,281.1,419.1z"/>
			<path style="&st8;" d="M287.8,419.1h-0.8c-1.2,0-2.1-0.9-2.1-2.1v-24.8c0-0.5,0.4-0.9,0.9-0.9h3.3c0.5,0,0.9,0.4,0.9,0.9v24.8
				C289.9,418.1,288.9,419.1,287.8,419.1z"/>
			<path style="&st8;" d="M294.4,419.1h-0.8c-1.2,0-2.1-0.9-2.1-2.1v-24.8c0-0.5,0.4-0.9,0.9-0.9h3.3c0.5,0,0.9,0.4,0.9,0.9v24.8
				C296.5,418.1,295.6,419.1,294.4,419.1z"/>
			<path style="&st8;" d="M301,419.1h-0.8c-1.2,0-2.1-0.9-2.1-2.1v-24.8c0-0.5,0.4-0.9,0.9-0.9h3.3c0.5,0,0.9,0.4,0.9,0.9v24.8
				C303.2,418.1,302.2,419.1,301,419.1z"/>
			<path style="&st8;" d="M307.4,419.1h-0.8c-1.2,0-2.1-0.9-2.1-2.1v-24.8c0-0.5,0.4-0.9,0.9-0.9h3.3c0.5,0,0.9,0.4,0.9,0.9v24.8
				C309.5,418.1,308.6,419.1,307.4,419.1z"/>
			<path style="&st8;" d="M224.4,417.6v-25.2c0-0.6,0.5-1.1,1.1-1.1h2.9c0.6,0,1.1,0.5,1.1,1.1v22
				C229.5,416.5,224.4,418.9,224.4,417.6z"/>
			<path style="&st8;" d="M276.5,417.6v-25.2c0-0.6-0.5-1.1-1.1-1.1h-2.9c-0.6,0-1.1,0.5-1.1,1.1v22
				C271.4,416.5,276.5,418.9,276.5,417.6z"/>
			<path style="&st8;" d="M234.1,416.3h-0.8c-1.2,0-2.1-0.9-2.1-2.1v-22c0-0.5,0.4-0.9,0.9-0.9h3.3c0.5,0,0.9,0.4,0.9,0.9v22
				C236.2,415.4,235.3,416.3,234.1,416.3z"/>
			<path style="&st8;" d="M240.6,416.3h-0.8c-1.2,0-2.1-0.9-2.1-2.1v-22c0-0.5,0.4-0.9,0.9-0.9h3.3c0.5,0,0.9,0.4,0.9,0.9v22
				C242.7,415.4,241.8,416.3,240.6,416.3z"/>
			<path style="&st8;" d="M247.4,416.3h-0.8c-1.2,0-2.1-0.9-2.1-2.1v-22c0-0.5,0.4-0.9,0.9-0.9h3.3c0.5,0,0.9,0.4,0.9,0.9v22
				C249.5,415.4,248.6,416.3,247.4,416.3z"/>
			<path style="&st8;" d="M254.2,416.3h-0.8c-1.2,0-2.1-0.9-2.1-2.1v-22c0-0.5,0.4-0.9,0.9-0.9h3.3c0.5,0,0.9,0.4,0.9,0.9v22
				C256.4,415.4,255.4,416.3,254.2,416.3z"/>
			<path style="&st8;" d="M260.8,416.3h-0.8c-1.2,0-2.1-0.9-2.1-2.1v-22c0-0.5,0.4-0.9,0.9-0.9h3.3c0.5,0,0.9,0.4,0.9,0.9v22
				C262.9,415.4,261.9,416.3,260.8,416.3z"/>
			<path style="&st8;" d="M267.6,416.3h-0.8c-1.2,0-2.1-0.9-2.1-2.1v-22c0-0.5,0.4-0.9,0.9-0.9h3.3c0.5,0,0.9,0.4,0.9,0.9v22
				C269.7,415.4,268.7,416.3,267.6,416.3z"/>
		</g>
		<g>
			<path style="&st8;" d="M195,440h-0.8c-1.2,0-2.1,0.9-2.1,2.1v24.8c0,0.5,0.4,0.9,0.9,0.9h3.3c0.5,0,0.9-0.4,0.9-0.9v-24.8
				C197.1,440.9,196.1,440,195,440z"/>
			<path style="&st8;" d="M201.5,440h-0.8c-1.2,0-2.1,0.9-2.1,2.1v24.8c0,0.5,0.4,0.9,0.9,0.9h3.3c0.5,0,0.9-0.4,0.9-0.9v-24.8
				C203.6,440.9,202.7,440,201.5,440z"/>
			<path style="&st8;" d="M208.3,440h-0.8c-1.2,0-2.1,0.9-2.1,2.1v24.8c0,0.5,0.4,0.9,0.9,0.9h3.3c0.5,0,0.9-0.4,0.9-0.9v-24.8
				C210.4,440.9,209.5,440,208.3,440z"/>
			<path style="&st8;" d="M215,440h-0.8c-1.2,0-2.1,0.9-2.1,2.1v24.8c0,0.5,0.4,0.9,0.9,0.9h3.3c0.5,0,0.9-0.4,0.9-0.9v-24.8
				C217.1,440.9,216.1,440,215,440z"/>
			<path style="&st8;" d="M221.8,440H221c-1.2,0-2.1,0.9-2.1,2.1v24.8c0,0.5,0.4,0.9,0.9,0.9h3.3c0.5,0,0.9-0.4,0.9-0.9v-24.8
				C223.9,440.9,223,440,221.8,440z"/>
			<path style="&st8;" d="M282.2,440h-0.8c-1.2,0-2.1,0.9-2.1,2.1v24.8c0,0.5,0.4,0.9,0.9,0.9h3.3c0.5,0,0.9-0.4,0.9-0.9v-24.8
				C284.3,440.9,283.3,440,282.2,440z"/>
			<path style="&st8;" d="M288.8,440H288c-1.2,0-2.1,0.9-2.1,2.1v24.8c0,0.5,0.4,0.9,0.9,0.9h3.3c0.5,0,0.9-0.4,0.9-0.9v-24.8
				C290.9,440.9,290,440,288.8,440z"/>
			<path style="&st8;" d="M295.5,440h-0.8c-1.2,0-2.1,0.9-2.1,2.1v24.8c0,0.5,0.4,0.9,0.9,0.9h3.3c0.5,0,0.9-0.4,0.9-0.9v-24.8
				C297.6,440.9,296.6,440,295.5,440z"/>
			<path style="&st8;" d="M302.1,440h-0.8c-1.2,0-2.1,0.9-2.1,2.1v24.8c0,0.5,0.4,0.9,0.9,0.9h3.3c0.5,0,0.9-0.4,0.9-0.9v-24.8
				C304.2,440.9,303.2,440,302.1,440z"/>
			<path style="&st8;" d="M308.5,440h-0.8c-1.2,0-2.1,0.9-2.1,2.1v24.8c0,0.5,0.4,0.9,0.9,0.9h3.3c0.5,0,0.9-0.4,0.9-0.9v-24.8
				C310.6,440.9,309.6,440,308.5,440z"/>
			<path style="&st8;" d="M225.5,441.5v25.2c0,0.6,0.5,1.1,1.1,1.1h2.9c0.6,0,1.1-0.5,1.1-1.1v-22
				C230.5,442.5,225.5,440.1,225.5,441.5z"/>
			<path style="&st8;" d="M277.5,441.5v25.2c0,0.6-0.5,1.1-1.1,1.1h-2.9c-0.6,0-1.1-0.5-1.1-1.1v-22
				C272.5,442.5,277.5,440.1,277.5,441.5z"/>
			<path style="&st8;" d="M235.1,442.7h-0.8c-1.2,0-2.1,0.9-2.1,2.1v22c0,0.5,0.4,0.9,0.9,0.9h3.3c0.5,0,0.9-0.4,0.9-0.9v-22
				C237.3,443.7,236.3,442.7,235.1,442.7z"/>
			<path style="&st8;" d="M241.7,442.7h-0.8c-1.2,0-2.1,0.9-2.1,2.1v22c0,0.5,0.4,0.9,0.9,0.9h3.3c0.5,0,0.9-0.4,0.9-0.9v-22
				C243.8,443.7,242.8,442.7,241.7,442.7z"/>
			<path style="&st8;" d="M248.5,442.7h-0.8c-1.2,0-2.1,0.9-2.1,2.1v22c0,0.5,0.4,0.9,0.9,0.9h3.3c0.5,0,0.9-0.4,0.9-0.9v-22
				C250.6,443.7,249.6,442.7,248.5,442.7z"/>
			<path style="&st8;" d="M255.3,442.7h-0.8c-1.2,0-2.1,0.9-2.1,2.1v22c0,0.5,0.4,0.9,0.9,0.9h3.3c0.5,0,0.9-0.4,0.9-0.9v-22
				C257.4,443.7,256.4,442.7,255.3,442.7z"/>
			<path style="&st8;" d="M261.8,442.7H261c-1.2,0-2.1,0.9-2.1,2.1v22c0,0.5,0.4,0.9,0.9,0.9h3.3c0.5,0,0.9-0.4,0.9-0.9v-22
				C263.9,443.7,263,442.7,261.8,442.7z"/>
			<path style="&st8;" d="M268.6,442.7h-0.8c-1.2,0-2.1,0.9-2.1,2.1v22c0,0.5,0.4,0.9,0.9,0.9h3.3c0.5,0,0.9-0.4,0.9-0.9v-22
				C270.7,443.7,269.8,442.7,268.6,442.7z"/>
		</g>
		<line style="&st9;" x1="137.7" y1="305.6" x2="126.6" y2="293.1"/>
		<line style="&st10;" x1="365.6" y1="305.6" x2="376.7" y2="293.1"/>
		<line style="&st10;" x1="365.6" y1="560.1" x2="376.7" y2="574"/>
		<line style="&st10;" x1="126.6" y1="574" x2="137.7" y2="560.1"/>
		<path style="&st8;" d="M266.8,329h-20.2c-1.6,0-2.8-1.3-2.8-2.8V325c0-1.6,1.3-2.8,2.8-2.8h20.2c1.6,0,2.8,1.3,2.8,2.8v1.1
			C269.7,327.7,268.4,329,266.8,329z"/>
		<path style="&st8;" d="M266.8,336.5h-20.2c-1.6,0-2.8-1.3-2.8-2.8v-1.1c0-1.6,1.3-2.8,2.8-2.8h20.2c1.6,0,2.8,1.3,2.8,2.8v1.1
			C269.7,335.2,268.4,336.5,266.8,336.5z"/>
		<path style="&st8;" d="M266.8,344.1h-20.2c-1.6,0-2.8-1.3-2.8-2.8v-1.1c0-1.6,1.3-2.8,2.8-2.8h20.2c1.6,0,2.8,1.3,2.8,2.8v1.1
			C269.7,342.8,268.4,344.1,266.8,344.1z"/>
		<path style="&st8;" d="M266.8,354.9h-20.2c-1.6,0-2.8-1.3-2.8-2.8V351c0-1.6,1.3-2.8,2.8-2.8h20.2c1.6,0,2.8,1.3,2.8,2.8v1.1
			C269.7,353.7,268.4,354.9,266.8,354.9z"/>
		<path style="&st8;" d="M266.8,362.8h-20.2c-1.6,0-2.8-1.3-2.8-2.8v-1.1c0-1.6,1.3-2.8,2.8-2.8h20.2c1.6,0,2.8,1.3,2.8,2.8v1.1
			C269.7,361.5,268.4,362.8,266.8,362.8z"/>
		<path style="&st8;" d="M344.2,329H324c-1.6,0-2.8-1.3-2.8-2.8V325c0-1.6,1.3-2.8,2.8-2.8h20.2c1.6,0,2.8,1.3,2.8,2.8v1.1
			C347.1,327.7,345.8,329,344.2,329z"/>
		<path style="&st8;" d="M344.2,336.5H324c-1.6,0-2.8-1.3-2.8-2.8v-1.1c0-1.6,1.3-2.8,2.8-2.8h20.2c1.6,0,2.8,1.3,2.8,2.8v1.1
			C347.1,335.2,345.8,336.5,344.2,336.5z"/>
		<path style="&st8;" d="M344.2,344.1H324c-1.6,0-2.8-1.3-2.8-2.8v-1.1c0-1.6,1.3-2.8,2.8-2.8h20.2c1.6,0,2.8,1.3,2.8,2.8v1.1
			C347.1,342.8,345.8,344.1,344.2,344.1z"/>
		<path style="&st8;" d="M344.2,354.9H324c-1.6,0-2.8-1.3-2.8-2.8V351c0-1.6,1.3-2.8,2.8-2.8h20.2c1.6,0,2.8,1.3,2.8,2.8v1.1
			C347.1,353.7,345.8,354.9,344.2,354.9z"/>
		<path style="&st8;" d="M344.2,362.8H324c-1.6,0-2.8-1.3-2.8-2.8v-1.1c0-1.6,1.3-2.8,2.8-2.8h20.2c1.6,0,2.8,1.3,2.8,2.8v1.1
			C347.1,361.5,345.8,362.8,344.2,362.8z"/>
		<path style="&st8;" d="M316.1,329h-41.8c-1.6,0-2.8-1.3-2.8-2.8V325c0-1.6,1.3-2.8,2.8-2.8h41.8c1.6,0,2.8,1.3,2.8,2.8v1.1
			C319,327.7,317.7,329,316.1,329z"/>
		<path style="&st8;" d="M316.1,336.5h-41.8c-1.6,0-2.8-1.3-2.8-2.8v-1.1c0-1.6,1.3-2.8,2.8-2.8h41.8c1.6,0,2.8,1.3,2.8,2.8v1.1
			C319,335.2,317.7,336.5,316.1,336.5z"/>
		<path style="&st8;" d="M316.1,344.1h-41.8c-1.6,0-2.8-1.3-2.8-2.8v-1.1c0-1.6,1.3-2.8,2.8-2.8h41.8c1.6,0,2.8,1.3,2.8,2.8v1.1
			C319,342.8,317.7,344.1,316.1,344.1z"/>
		<path style="&st8;" d="M316.1,354.9h-41.8c-1.6,0-2.8-1.3-2.8-2.8V351c0-1.6,1.3-2.8,2.8-2.8h41.8c1.6,0,2.8,1.3,2.8,2.8v1.1
			C319,353.7,317.7,354.9,316.1,354.9z"/>
		<path style="&st8;" d="M316.1,362.8h-41.8c-1.6,0-2.8-1.3-2.8-2.8v-1.1c0-1.6,1.3-2.8,2.8-2.8h41.8c1.6,0,2.8,1.3,2.8,2.8v1.1
			C319,361.5,317.7,362.8,316.1,362.8z"/>
		<path style="&st8;" d="M220.9,336.5h8.8c1.6,0,2.8-1.3,2.8-2.8v-1.1c0-1.6-1.3-2.8-2.8-2.8h-8.8c-1.6,0-2.8,1.3-2.8,2.8v1.1
			C218.1,335.2,219.4,336.5,220.9,336.5z"/>
		<path style="&st8;" d="M220.9,344.5h8.8c1.6,0,2.8-1.3,2.8-2.8v-1.1c0-1.6-1.3-2.8-2.8-2.8h-8.8c-1.6,0-2.8,1.3-2.8,2.8v1.1
			C218.1,343.2,219.4,344.5,220.9,344.5z"/>
		<path style="&st8;" d="M220.9,352.1h8.8c1.6,0,2.8-1.3,2.8-2.8v-1.1c0-1.6-1.3-2.8-2.8-2.8h-8.8c-1.6,0-2.8,1.3-2.8,2.8v1.1
			C218.1,350.9,219.4,352.1,220.9,352.1z"/>
		<path style="&st8;" d="M203.4,336.5h8c1.6,0,2.8-1.3,2.8-2.8v-1.1c0-1.6-1.3-2.8-2.8-2.8h-8c-1.6,0-2.8,1.3-2.8,2.8v1.1
			C200.5,335.2,201.8,336.5,203.4,336.5z"/>
		<path style="&st8;" d="M203.4,344.5h8c1.6,0,2.8-1.3,2.8-2.8v-1.1c0-1.6-1.3-2.8-2.8-2.8h-8c-1.6,0-2.8,1.3-2.8,2.8v1.1
			C200.5,343.2,201.8,344.5,203.4,344.5z"/>
		<path style="&st8;" d="M203.4,352.1h8c1.6,0,2.8-1.3,2.8-2.8v-1.1c0-1.6-1.3-2.8-2.8-2.8h-8c-1.6,0-2.8,1.3-2.8,2.8v1.1
			C200.5,350.9,201.8,352.1,203.4,352.1z"/>
		<path style="&st8;" d="M161,336.2h13.5c0.6,0,1.1-0.5,1.1-1.1v-4.5c0-0.6-0.5-1.1-1.1-1.1H161c-1.6,0-2.8,1.3-2.8,2.8v1.1
			C158.1,334.9,159.4,336.2,161,336.2z"/>
		<path style="&st8;" d="M161,344.2h13.5c0.6,0,1.1-0.5,1.1-1.1v-4.5c0-0.6-0.5-1.1-1.1-1.1H161c-1.6,0-2.8,1.3-2.8,2.8v1.1
			C158.1,342.9,159.4,344.2,161,344.2z"/>
		<path style="&st8;" d="M161,351.8h13.5c0.6,0,1.1-0.5,1.1-1.1v-4.5c0-0.6-0.5-1.1-1.1-1.1H161c-1.6,0-2.8,1.3-2.8,2.8v1.1
			C158.1,350.6,159.4,351.8,161,351.8z"/>
		<path style="&st8;" d="M198.2,336.7h0.5c0.7,0,1.2-0.5,1.2-1.2v-4.3c0-0.7-0.5-1.2-1.2-1.2h-0.5c-0.7,0-1.2,0.5-1.2,1.2v4.3
			C197,336.1,197.5,336.7,198.2,336.7z"/>
		<path style="&st8;" d="M198.2,344.7h0.5c0.7,0,1.2-0.5,1.2-1.2v-4.3c0-0.7-0.5-1.2-1.2-1.2h-0.5c-0.7,0-1.2,0.5-1.2,1.2v4.3
			C197,344.1,197.5,344.7,198.2,344.7z"/>
		<path style="&st8;" d="M198.2,352.3h0.5c0.7,0,1.2-0.5,1.2-1.2v-4.3c0-0.7-0.5-1.2-1.2-1.2h-0.5c-0.7,0-1.2,0.5-1.2,1.2v4.3
			C197,351.7,197.5,352.3,198.2,352.3z"/>
		<path style="&st8;" d="M195.7,344.7h0.2c0.3,0,0.6-0.3,0.6-0.6v-5.6c0-0.3-0.3-0.6-0.6-0.6h-0.2c-0.3,0-0.6,0.3-0.6,0.6v5.6
			C195.1,344.4,195.4,344.7,195.7,344.7z"/>
		<path style="&st8;" d="M195.7,352.3h0.2c0.3,0,0.6-0.3,0.6-0.6v-5.6c0-0.3-0.3-0.6-0.6-0.6h-0.2c-0.3,0-0.6,0.3-0.6,0.6v5.6
			C195.1,352,195.4,352.3,195.7,352.3z"/>
		<path style="&st8;" d="M184.6,351.5h-1.9c-2.6,0-4.8-2.1-4.8-4.8v-12.2c0-2.6,2.1-4.8,4.8-4.8h1.9c2.6,0,4.8,2.1,4.8,4.8v12.2
			C189.4,349.4,187.3,351.5,184.6,351.5z"/>
	</g>
	<line style="&st11;" x1="154.2" y1="383.1" x2="158.9" y2="383.1"/>
	<line style="&st11;" x1="154.2" y1="384.5" x2="158.9" y2="384.5"/>
	<line style="&st11;" x1="154.2" y1="385.6" x2="158.9" y2="385.6"/>
	<line style="&st11;" x1="154.2" y1="386.8" x2="158.9" y2="386.8"/>
	<line style="&st11;" x1="154.2" y1="387.9" x2="158.9" y2="387.9"/>
	<line style="&st11;" x1="154.2" y1="389.1" x2="158.9" y2="389.1"/>
	<line style="&st11;" x1="154.2" y1="390.2" x2="158.9" y2="390.2"/>
	<line style="&st11;" x1="344.7" y1="383.2" x2="349.4" y2="383.2"/>
	<line style="&st11;" x1="344.7" y1="384.6" x2="349.4" y2="384.6"/>
	<line style="&st11;" x1="344.7" y1="385.8" x2="349.4" y2="385.8"/>
	<line style="&st11;" x1="344.7" y1="386.9" x2="349.4" y2="386.9"/>
	<line style="&st11;" x1="344.7" y1="388.1" x2="349.4" y2="388.1"/>
	<line style="&st11;" x1="344.7" y1="389.2" x2="349.4" y2="389.2"/>
	<line style="&st11;" x1="344.7" y1="390.4" x2="349.4" y2="390.4"/>
	<line style="&st11;" x1="344.2" y1="536.5" x2="348.9" y2="536.5"/>
	<line style="&st11;" x1="344.2" y1="537.9" x2="348.9" y2="537.9"/>
	<line style="&st11;" x1="344.2" y1="539.1" x2="348.9" y2="539.1"/>
	<line style="&st11;" x1="344.2" y1="540.2" x2="348.9" y2="540.2"/>
	<line style="&st11;" x1="344.2" y1="541.4" x2="348.9" y2="541.4"/>
	<line style="&st11;" x1="344.2" y1="542.5" x2="348.9" y2="542.5"/>
	<line style="&st11;" x1="344.2" y1="543.7" x2="348.9" y2="543.7"/>
</g>
<path style="&st8;" d="M310.9,543.8h8.8c1.6,0,2.8-1.3,2.8-2.8v-1.1c0-1.6-1.3-2.8-2.8-2.8h-8.8c-1.6,0-2.8,1.3-2.8,2.8v1.1
	C308,542.6,309.3,543.8,310.9,543.8z"/>
<path style="&st8;" d="M327.8,543.8h8.8c1.6,0,2.8-1.3,2.8-2.8v-1.1c0-1.6-1.3-2.8-2.8-2.8h-8.8c-1.6,0-2.8,1.3-2.8,2.8v1.1
	C325,542.6,326.2,543.8,327.8,543.8z"/>
<path style="&st8;" d="M288.9,537.1h-13.5c-0.6,0-1.1,0.5-1.1,1.1v4.5c0,0.6,0.5,1.1,1.1,1.1h13.5c1.6,0,2.8-1.3,2.8-2.8v-1.1
	C291.7,538.3,290.5,537.1,288.9,537.1z"/>
<path style="&st8;" d="M197.1,540.1h-31.5c-0.6,0-1.1,0.5-1.1,1.1v6.7c0,0.6,0.5,1.1,1.1,1.1h31.5c2.1,0,3.8-1.7,3.8-3.8v-1.4
	C200.8,541.8,199.1,540.1,197.1,540.1z"/>
<path style="&st8;" d="M157.9,549h5c0.6,0,1.1-0.5,1.1-1.1v-6.7c0-0.6-0.5-1.1-1.1-1.1h-5c-2.1,0-3.8,1.7-3.8,3.8v1.4
	C154.2,547.4,155.8,549,157.9,549z"/>
<path style="&st12;" d="M310.9,543.8h8.8c1.6,0,2.8-1.3,2.8-2.8v-1.1c0-1.6-1.3-2.8-2.8-2.8h-8.8c-1.6,0-2.8,1.3-2.8,2.8v1.1
	C308,542.6,309.3,543.8,310.9,543.8z"/>
<path style="&st12;" d="M327.8,543.8h8.8c1.6,0,2.8-1.3,2.8-2.8v-1.1c0-1.6-1.3-2.8-2.8-2.8h-8.8c-1.6,0-2.8,1.3-2.8,2.8v1.1
	C325,542.6,326.2,543.8,327.8,543.8z"/>
<path style="&st12;" d="M288.9,537.1h-13.5c-0.6,0-1.1,0.5-1.1,1.1v4.5c0,0.6,0.5,1.1,1.1,1.1h13.5c1.6,0,2.8-1.3,2.8-2.8v-1.1
	C291.7,538.3,290.5,537.1,288.9,537.1z"/>
<path style="&st12;" d="M197.1,540.1h-31.5c-0.6,0-1.1,0.5-1.1,1.1v6.7c0,0.6,0.5,1.1,1.1,1.1h31.5c2.1,0,3.8-1.7,3.8-3.8v-1.4
	C200.8,541.8,199.1,540.1,197.1,540.1z"/>
<path style="&st12;" d="M157.9,549h5c0.6,0,1.1-0.5,1.1-1.1v-6.7c0-0.6-0.5-1.1-1.1-1.1h-5c-2.1,0-3.8,1.7-3.8,3.8v1.4
	C154.2,547.4,155.8,549,157.9,549z"/>
</svg>
