<?xml version="1.0" encoding="utf-8"?>
<!-- Generator: Adobe Illustrator 19.1.0, SVG Export Plug-In . SVG Version: 6.00 Build 0)  -->
<svg version="1.1" id="Layer_1" xmlns="http://www.w3.org/2000/svg" xmlns:xlink="http://www.w3.org/1999/xlink" x="0px" y="0px"
	 viewBox="0 0 595.3 841.9" style="enable-background:new 0 0 595.3 841.9;" xml:space="preserve">
<g>
	<g>
		<path style="&st0;" d="M474.3,376.8l-3.1,3.4l-0.6-3.7l-8.1,9l-0.6,5.6l-3.8,4.2l-1.4,0l0.1,1.2l-3,3.4l-0.8-183.4l4.2,3.1
			l0.4-2.2l16,11.4c0.1,0.1,0.2,0.2,0.2,0.4l0.6,7.4c0,0.1,0,0.2,0,0.3l0.4,130.2c0,0.2,0,0.3,0,0.5L474.3,376.8z"/>
		<polygon style="&st1;" points="454,399.9 434.7,398.8 434.7,397.4 254.3,386.2 254.3,387.5 239.4,386.7 239.4,386.7 239.4,225.4 
			453.2,216.5 		"/>
		<polygon style="&st0;" points="449,387.5 437.9,397.6 249.8,385.8 242.1,376.6 242.1,232.9 250.4,223.3 438.6,215.7 449,226 		"/>
		<polygon style="&st1;" points="447.5,387.5 436.4,397.6 249.8,385.8 242.1,376.6 242.1,232.9 250.3,223.3 437.2,215.8 447.5,226 
					"/>
		<path style="&st0;" d="M421.9,332.8l-57.8-1.3c-0.9,0-1.8,0.3-2.4,1l-35.7,36.6c-0.8,0.8-1.9,1.3-3.1,1.2l-54.7-2.6
			c-1.2-0.1-2.2-0.6-3-1.5l-5.3-6.9c-0.6-0.7-0.9-1.7-0.9-2.6V250.9c0-0.9,0.4-1.9,1-2.5l6.3-6.7c0.5-0.6,1.3-0.9,2-0.9l148.8-4.1
			c0.8,0,1.6,0.3,2.2,0.9l6.6,6.6c0.6,0.6,0.9,1.4,0.9,2.3V328C426.8,330.7,424.6,332.9,421.9,332.8z"/>
		<path style="&st1;" d="M420.2,328.8l-57.3-1.6c-0.9,0-1.7,0.3-2.4,1l-35.5,36.6c-0.8,0.8-1.9,1.2-3,1.2l-51.7-2.3
			c-1.1-0.1-2.2-0.6-2.9-1.5l-3.9-4.4c-0.6-0.7-0.9-1.6-0.9-2.5L262.3,250c0-0.9,0.4-1.8,1-2.5l4.9-4.7c0.5-0.5,1.2-0.9,2-0.9
			l145.2-4.2c0.8,0,1.5,0.3,2.1,0.8l6.4,6.4c0.6,0.6,0.9,1.4,0.9,2.2l0.2,77.2C425,326.8,422.8,328.9,420.2,328.8z"/>
		<path style="&st1;" d="M238.5,240.8h0.9v-4.7h-0.9l0,0C237.9,237.6,237.9,239.3,238.5,240.8L238.5,240.8z"/>
		<path style="&st1;" d="M238.5,304h0.9v-4.7h-0.9l0,0C237.9,300.8,237.9,302.5,238.5,304L238.5,304z"/>
		<path style="&st1;" d="M238.5,372.8h0.9v-4.7h-0.9l0,0C237.9,369.6,237.9,371.3,238.5,372.8L238.5,372.8z"/>
		<path style="&st0;" d="M238.5,386.7l0.9,0v0.1l14.9,0.8l0-0.4l0.4,0.3c0.2,0.1,0.2,0.3,0.2,0.4v2.5c0,0.3-0.3,0.6-0.6,0.6
			l-15.5-0.9c-0.2,0-0.3-0.2-0.3-0.4V386.7z"/>
		<path style="&st1;" d="M238.5,386.8l15.8,0.9c0,0,0.2,0,0.3-0.1c0.1-0.1-0.1-0.4-0.1-0.4c0.2,0.2,0.6,0.2,0.5,0.8v2.5
			c0,0.3-0.3,0.6-0.6,0.6l-15.5-0.9c-0.2,0-0.3-0.2-0.3-0.4V386.8z"/>
		<path style="&st1;" d="M454.1,387.1l1.5,7.7c0.1,0.3,0.3,0.5,0.6,0.5h2l-1.7-8.2c-0.1-0.5-0.2-1-0.2-1.6V226.6c0-0.5,0-1,0.1-1.5
			l1.3-7.7h-1.6c-0.2,0-0.4,0.1-0.4,0.3l-1.6,7.2c-0.1,0.6-0.2,1.3-0.2,1.9v158.8C454,386.1,454,386.6,454.1,387.1z"/>
		<path style="&st1;" d="M468.6,379l2.1-2.4l0.6,3.7h-2.4c-0.2,0-0.3-0.1-0.3-0.3V379z"/>
		<polygon style="&st1;" points="472.4,382.3 470.5,382.3 470.5,380.3 471.3,380.3 474.3,376.8 474.3,380 		"/>
		<g>
			<path style="&st1;" d="M460.4,384.4h-2.5c-0.7,0-1.2-0.5-1.2-1.2v-2.9c0-0.7,0.5-1.2,1.2-1.2h2.5l-0.4,0.7
				c-0.1,0.1-0.1,0.3-0.1,0.4l-0.1,0.5c-0.1,0.7-0.1,1.4,0,2.1l0.1,0.7c0,0.2,0.1,0.4,0.2,0.5L460.4,384.4z"/>
			<path style="&st0;" d="M460.8,381.8c0-1.5,0-2.7-0.4-2.7s-0.7,1.2-0.7,2.7c0,1.5,0.3,2.7,0.7,2.7S460.8,383.2,460.8,381.8z"/>
			<path style="&st1;" d="M460.3,381.9L460.3,381.9c-0.1,0-0.2-0.1-0.2-0.1v-1.3c0-0.1,0.1-0.1,0.1-0.1h0c0.1,0,0.1,0.1,0.1,0.1v1.3
				C460.4,381.8,460.3,381.9,460.3,381.9z"/>
		</g>
		<g>
			<path style="&st1;" d="M460.4,234.7h-2.5c-0.7,0-1.2-0.5-1.2-1.2v-2.9c0-0.7,0.5-1.2,1.2-1.2h2.5L460,230
				c-0.1,0.1-0.1,0.3-0.1,0.4l-0.1,0.5c-0.1,0.7-0.1,1.4,0,2.1l0.1,0.7c0,0.2,0.1,0.4,0.2,0.5L460.4,234.7z"/>
			<path style="&st0;" d="M460.8,232c0-1.5,0-2.7-0.4-2.7s-0.7,1.2-0.7,2.7s0.3,2.7,0.7,2.7S460.8,233.5,460.8,232z"/>
			<path style="&st1;" d="M460.3,232.1L460.3,232.1c-0.1,0-0.2-0.1-0.2-0.1v-1.3c0-0.1,0.1-0.1,0.1-0.1h0c0.1,0,0.1,0.1,0.1,0.1v1.3
				C460.4,232,460.3,232.1,460.3,232.1z"/>
		</g>
		<g>
			<path style="&st1;" d="M477.1,366.4h-2.2c-0.6,0-1-0.4-1-1v-2.4c0-0.5,0.5-1,1-1h2.2l-0.3,0.6c-0.1,0.1-0.1,0.2-0.1,0.3l-0.1,0.4
				c-0.1,0.6-0.1,1.2,0,1.7l0.1,0.6c0,0.2,0.1,0.3,0.2,0.4L477.1,366.4z"/>
			<path style="&st0;" d="M477.4,364.2c0-1.2,0-2.2-0.3-2.2s-0.6,1-0.6,2.2s0.3,2.2,0.6,2.2S477.4,365.4,477.4,364.2z"/>
			<path style="&st1;" d="M477,364.3L477,364.3c-0.1,0-0.1-0.1-0.1-0.1v-1c0-0.1,0.1-0.1,0.1-0.1h0c0.1,0,0.1,0.1,0.1,0.1v1
				C477.1,364.3,477,364.3,477,364.3z"/>
		</g>
		<g>
			<path style="&st1;" d="M476.9,302.3h-2.2c-0.6,0-1-0.4-1-1v-2.4c0-0.5,0.5-1,1-1h2.2l-0.3,0.6c-0.1,0.1-0.1,0.2-0.1,0.3l-0.1,0.4
				c-0.1,0.6-0.1,1.2,0,1.7l0.1,0.6c0,0.2,0.1,0.3,0.2,0.4L476.9,302.3z"/>
			<path style="&st0;" d="M477.2,300.1c0-1.2,0-2.2-0.3-2.2s-0.6,1-0.6,2.2s0.3,2.2,0.6,2.2S477.2,301.3,477.2,300.1z"/>
			<path style="&st1;" d="M476.8,300.2L476.8,300.2c-0.1,0-0.1-0.1-0.1-0.1v-1c0-0.1,0.1-0.1,0.1-0.1h0c0.1,0,0.1,0.1,0.1,0.1v1
				C476.9,300.1,476.8,300.2,476.8,300.2z"/>
		</g>
		<g>
			<path style="&st1;" d="M476.9,244.1h-2.2c-0.6,0-1-0.4-1-1v-2.4c0-0.5,0.5-1,1-1h2.2l-0.3,0.6c-0.1,0.1-0.1,0.2-0.1,0.3l-0.1,0.4
				c-0.1,0.6-0.1,1.2,0,1.7l0.1,0.6c0,0.2,0.1,0.3,0.2,0.4L476.9,244.1z"/>
			<path style="&st0;" d="M477.2,241.9c0-1.2,0-2.2-0.3-2.2s-0.6,1-0.6,2.2c0,1.2,0.3,2.2,0.6,2.2S477.2,243.1,477.2,241.9z"/>
			<path style="&st1;" d="M476.8,242L476.8,242c-0.1,0-0.1-0.1-0.1-0.1v-1c0-0.1,0.1-0.1,0.1-0.1h0c0.1,0,0.1,0.1,0.1,0.1v1
				C476.9,241.9,476.8,242,476.8,242z"/>
		</g>
		<path style="&st1;" d="M471.4,326.7l-9.8,5.1c-0.3,0.2-0.8,0-0.8-0.4l-1-8.6v-70.5c0-0.3,0-0.5,0.1-0.8l0.9-6.4
			c0-0.3,0.4-0.5,0.7-0.4l9.9,4.2c0.3,0.1,0.4,0.4,0.5,0.6l1.1,9.3c0,0.3,0,0.6,0,0.9v58.2c0,0.2,0,0.4,0,0.7l-1,7.3
			C471.9,326.2,471.7,326.5,471.4,326.7z"/>
		<path style="&st0;" d="M469.9,324.6l-9.5,4.4c0-0.5,6.6-3.7,8.3-4.5c0.3-0.1,0.4-0.4,0.5-0.7l0.7-6.3c0,0,0,0,0-0.1l-0.2-58.4
			c0-0.2-0.3-4.9-0.3-6.5c0-0.3-0.2-0.6-0.5-0.8l-8.6-4.7c0-0.3,0-0.2,0-0.2l9.6,4.3c0.2,0.1,0.4,0.3,0.4,0.6l0.6,6.9
			c0,0.3,0,0.5,0,0.8l0,57.6c0,0.2,0,0.4,0,0.6l-0.7,6C470.4,324.2,470.2,324.5,469.9,324.6z"/>
		<g>
			<path style="&st1;" d="M460.4,306.4h-2.5c-0.7,0-1.2-0.5-1.2-1.2v-2.9c0-0.7,0.5-1.2,1.2-1.2h2.5l-0.4,0.7
				c-0.1,0.1-0.1,0.3-0.1,0.4l-0.1,0.5c-0.1,0.7-0.1,1.4,0,2.1l0.1,0.7c0,0.2,0.1,0.4,0.2,0.5L460.4,306.4z"/>
			<path style="&st0;" d="M460.8,303.7c0-1.5,0-2.7-0.4-2.7s-0.7,1.2-0.7,2.7c0,1.5,0.3,2.7,0.7,2.7S460.8,305.2,460.8,303.7z"/>
			<path style="&st1;" d="M460.3,303.8L460.3,303.8c-0.1,0-0.2-0.1-0.2-0.1v-1.3c0-0.1,0.1-0.1,0.1-0.1h0c0.1,0,0.1,0.1,0.1,0.1v1.3
				C460.4,303.8,460.3,303.8,460.3,303.8z"/>
		</g>
		<path style="&st1;" d="M454,404c-4.7-0.3-17.1-1.1-19.6-1.3c-0.3,0-0.5-0.2-0.5-0.5v-3.8l0.8-0.1l0,0.5l18.9,1
			c0.2,0,0.4-0.1,0.6-0.2l2.7-3.1l0-0.1l0.5,0.2c0.1,0,0.1,0.1,0.1,0.2v3.5C457.6,400.2,455.1,404,454,404z"/>
		<path style="&st0;" d="M454,400.5c0-0.1-0.1-0.2-0.2-0.2l-19.1-1l0-0.5l19.3,1.1c0,0,0,0,0,0h0.5l2.8-3.2h0.1l-2.7,3.6
			c0,0,0,0.1,0,0.1l0,2.9c0,0.1-0.1,0.2-0.1,0.2l-0.6,0.2V400.5z"/>
		<path style="&st0;" d="M419.5,365l-53.8-2.3c-2.8-0.1-5-2.4-5-5.2v-18.3c0-2.5,2.1-4.5,4.5-4.5l54.2,1c0.8,0,1.6,0.4,2.2,1
			l4.6,5.3c0.5,0.5,0.7,1.2,0.7,1.9v13.5c0,0.8-0.3,1.5-0.8,2l-4.3,4.5C421.1,364.7,420.3,365,419.5,365z"/>
		<path style="&st1;" d="M416.7,362.1l-49.5-2.3c-2.5-0.1-3.4-1-3.4-3.1v-16.4c0-1.9,1-3.2,3.5-3.2l49.3,1.4c0.8,0,2.4,0.1,2.9,0.6
			l3.3,3.8c0.4,0.5,0.6,1.1,0.6,1.7v12.2c0,0.7-0.3,1.3-0.7,1.8l-3,3.2C419.1,362.3,417.4,362.1,416.7,362.1z"/>
		<path style="&st0;" d="M416.2,361.5l-47.4-2.2c-2.4-0.1-3.3-0.5-3.3-3v-15.8c0-2.2,1.2-3.1,3.4-3.1l47.2,1.3
			c0.7,0,2.3,0.1,2.8,0.6l3.1,3.6c0.4,0.5,0.6,1,0.6,1.7v11.7c0,0.6-0.2,1.3-0.7,1.7l-2.9,3C418.6,361.8,416.9,361.6,416.2,361.5z"
			/>
		<polygon style="&st1;" points="397.5,358.1 366.8,356.6 366.8,339.7 397.5,340.6 		"/>
		<polygon style="&st0;" points="395.9,356.6 368,355.4 368,341.3 395.9,342.1 		"/>
		<polygon style="&st1;" points="419.5,358.3 407.4,357.9 405.4,355.6 405.4,343.2 407.5,341.4 419.5,341.6 421.4,343.7 
			421.4,356.4 		"/>
		<polygon style="&st0;" points="419.2,357.8 407.8,357.4 405.9,355.3 405.9,343.6 407.9,341.8 419.2,342.1 421,344 421,356.1 		"/>
		<polygon style="&st1;" points="415.8,352.8 411.1,352.7 410.4,351.8 410.4,347 411.1,346.3 415.8,346.4 416.5,347.2 416.5,352.1 
					"/>
		<polygon style="&st0;" points="351,339.5 287.5,337 287.5,332.1 316.2,327.3 361.3,328.8 		"/>
		<polygon style="&st0;" points="284.6,320.7 263.3,323.4 263,252 281.8,254.4 282,261.9 287.5,262.3 287.5,313.9 		"/>
		<polygon style="&st0;" points="317.1,348.3 308.6,348.3 309.7,345.6 324.2,342.2 330.6,342.8 317.9,346.3 		"/>
		<polygon style="&st0;" points="338.4,352.5 317.8,351.5 319.6,346.6 342.9,347.8 		"/>
		<polygon style="&st1;" points="334.5,338.5 330.4,338.4 330.4,333.8 331.5,333.4 335.6,333.4 334.5,334.1 		"/>
		<rect x="355.9" y="254.3" style="&st0;" width="17.1" height="9.3"/>
		<rect x="375.7" y="262.7" style="&st2;" width="2.6" height="64.6"/>
		<rect x="347.5" y="254.3" style="&st2;" width="2.8" height="74.2"/>
		<rect x="349.3" y="254.3" style="&st1;" width="0.4" height="74.2"/>
		
			<rect x="294.5" y="261.7" transform="matrix(1 -3.745621e-03 3.745621e-03 1 -0.9796 1.349)" style="&st0;" width="130.2" height="1.1"/>
		
			<rect x="294.5" y="259.3" transform="matrix(0.9999 -1.179257e-02 1.179257e-02 0.9999 -3.0391 4.2593)" style="&st0;" width="130.2" height="1.1"/>
		
			<rect x="287.9" y="256.7" transform="matrix(0.9998 -2.080355e-02 2.080355e-02 0.9998 -5.2748 7.4688)" style="&st0;" width="136.9" height="1.1"/>
		<rect x="377.5" y="262.7" style="&st1;" width="0.4" height="64.7"/>
		<path style="&st0;" d="M348.9,250.6h-1.4V242h1.4l-0.1,0.6c-0.5,2.4-0.5,4.9,0,7.3L348.9,250.6z"/>
		<rect x="348.3" y="249.4" style="&st0;" width="10.4" height="1.2"/>
		<rect x="346.7" y="250.6" style="&st0;" width="1.5" height="3.2"/>
		<rect x="348.2" y="251.4" style="&st0;" width="9.4" height="0.8"/>
		<circle style="&st0;" cx="358.8" cy="252.2" r="1.6"/>
		<circle style="&st0;" cx="364.8" cy="245.6" r="4.4"/>
		<polygon style="&st0;" points="377,253.8 374.6,253.1 374.6,240.7 377,240.7 		"/>
		<line style="&st3;" x1="294.8" y1="262.5" x2="287.1" y2="261"/>
		<line style="&st4;" x1="287.5" y1="261.4" x2="287.5" y2="245.6"/>
		<line style="&st4;" x1="287.5" y1="261.4" x2="293.6" y2="247.3"/>
		<line style="&st4;" x1="287.5" y1="251.4" x2="289.7" y2="246.3"/>
		<line style="&st4;" x1="291.9" y1="258.5" x2="296.5" y2="248"/>
		<line style="&st5;" x1="297.1" y1="254.3" x2="299.7" y2="248.6"/>
		<line style="&st6;" x1="299.8" y1="248.5" x2="299.8" y2="263"/>
		<line style="&st4;" x1="291.9" y1="258.5" x2="288.1" y2="250"/>
		<line style="&st4;" x1="294.4" y1="258" x2="294.3" y2="254.3"/>
		<line style="&st4;" x1="294.2" y1="254.3" x2="300" y2="254.3"/>
		<line style="&st4;" x1="281.1" y1="245.6" x2="286.9" y2="245.6"/>
		<line style="&st7;" x1="294.2" y1="254.3" x2="290.8" y2="246.3"/>
		<line style="&st8;" x1="297.2" y1="254.1" x2="294.5" y2="247.3"/>
		<line style="&st9;" x1="300" y1="253.8" x2="297.5" y2="248.2"/>
		<line style="&st4;" x1="297.2" y1="253.8" x2="297.2" y2="262.7"/>
		<line style="&st4;" x1="300" y1="248.9" x2="286.7" y2="245.6"/>
		<circle style="&st0;" cx="338.4" cy="229.5" r="2.5"/>
		<circle style="&st0;" cx="245" cy="237.2" r="2.5"/>
		<circle style="&st0;" cx="245" cy="301.6" r="2.5"/>
		<circle style="&st0;" cx="245" cy="372.2" r="2.5"/>
		<circle style="&st0;" cx="340" cy="377.2" r="2.5"/>
		<circle style="&st0;" cx="444.7" cy="382.8" r="2.5"/>
		<circle style="&st0;" cx="444.7" cy="303.7" r="2.5"/>
		<circle style="&st0;" cx="445" cy="230.9" r="2.5"/>
		<circle style="&st1;" cx="338.1" cy="229.5" r="2.5"/>
		<circle style="&st0;" cx="337" cy="229.5" r="2.5"/>
		<circle style="&st1;" cx="337" cy="229.5" r="1.4"/>
		<circle style="&st1;" cx="244.7" cy="237.2" r="2.5"/>
		<circle style="&st0;" cx="243.6" cy="237.2" r="2.5"/>
		<circle style="&st1;" cx="243.6" cy="237.2" r="1.4"/>
		<circle style="&st1;" cx="244.7" cy="301.6" r="2.5"/>
		<circle style="&st0;" cx="243.6" cy="301.6" r="2.5"/>
		<circle style="&st1;" cx="243.6" cy="301.6" r="1.4"/>
		<circle style="&st1;" cx="244.7" cy="372.2" r="2.5"/>
		<circle style="&st0;" cx="243.6" cy="372.2" r="2.5"/>
		<circle style="&st1;" cx="243.6" cy="372.2" r="1.4"/>
		<circle style="&st1;" cx="339.7" cy="377.2" r="2.5"/>
		<circle style="&st0;" cx="338.7" cy="377.2" r="2.5"/>
		<circle style="&st1;" cx="338.6" cy="377.2" r="1.4"/>
		<circle style="&st1;" cx="444.5" cy="382.8" r="2.5"/>
		<circle style="&st0;" cx="443.9" cy="382.8" r="2.5"/>
		<circle style="&st1;" cx="443.9" cy="382.8" r="1.4"/>
		<circle style="&st1;" cx="444.4" cy="303.7" r="2.5"/>
		<circle style="&st0;" cx="443.9" cy="303.7" r="2.5"/>
		<circle style="&st1;" cx="443.8" cy="303.7" r="1.4"/>
		<circle style="&st1;" cx="444.7" cy="230.9" r="2.5"/>
		<circle style="&st0;" cx="444.2" cy="230.9" r="2.5"/>
		<circle style="&st1;" cx="444.1" cy="230.9" r="1.4"/>
		<path style="&st1;" d="M378.5,218.1l5.9-0.2c0,0-1-17.2-11.1-16.4c-11,1.7-13.7,17.3-13.7,17.3l6.5-0.3c0,0,0.5-8,7-11.1
			c0,0,0,0,0,0c0.8-0.4,1.7,0,2.2,0.7C378.6,213.4,378.5,218.1,378.5,218.1z"/>
		<path style="&st0;" d="M385,217.9l2.3-0.1c0,0-2.1-23.2-12.1-22c-9.1,1.7-9.1,22.9-9.1,22.9l2.8-0.1c0,0,0-16.5,6.5-19.6
			c0.6-0.3,1.2-0.2,1.8,0C383.8,202.6,385,217.9,385,217.9z"/>
		<rect x="372.2" y="255.3" style="&st1;" width="0.8" height="9.3"/>
	</g>
	<polygon style="&st10;" points="415.5,352.5 411.3,352.4 410.7,351.6 410.7,347.3 411.4,346.6 415.5,346.7 416.2,347.4 
		416.2,351.9 	"/>
	<rect x="362.3" y="263.5" style="&st2;" width="8.9" height="1.1"/>
	<polygon style="&st2;" points="366.8,265.9 365.5,266.6 365.5,264.6 366.8,264.6 	"/>
</g>
<g>
	<path style="&st11;" d="M231.1,415c-5.7,0-11.2-1.9-15.2-5.3c-6.3-5.4-9.9-12.7-9.9-20.2v-86.6h-51.4v159.1h51.4h122.7V415H231.1z"
		/>
	<rect x="154.7" y="268.1" style="&st11;" width="51.4" height="21.7"/>
</g>
<rect x="259.9" y="428.4" style="&st12;" width="60.7" height="31.8"/>
<text transform="matrix(1 0 0 1 259.8848 448.1733)" style="&st13; &st14; &st15;">2014</text>
</svg>
