<?xml version="1.0" encoding="utf-8"?>
<!-- Generator: Adobe Illustrator 19.1.0, SVG Export Plug-In . SVG Version: 6.00 Build 0)  -->
<svg version="1.1" id="Layer_1" xmlns="http://www.w3.org/2000/svg" xmlns:xlink="http://www.w3.org/1999/xlink" x="0px" y="0px"
	 viewBox="0 0 595.3 841.9" style="enable-background:new 0 0 595.3 841.9;" xml:space="preserve">
<g>
	<rect x="353.1" y="422.3" style="&st0;" width="61.2" height="21.7"/>
	<path style="&st0;" d="M353.1,250.2H230.4v46.9H328c5.7,0,11.2,1.9,15.2,5.3c6.3,5.4,9.9,12.7,9.9,20.2v86.6h61.2V250.2H353.1z"/>
</g>
<rect x="235.5" y="262.1" style="&st1;" width="64" height="31.8"/>
<text transform="matrix(1 0 0 1 235.4644 283.5522)" style="&st2; &st3; &st4;">196</text>
<g>
	<g>
		<path style="&st5;" d="M283,609.1l-144.8,19.4l-4.7,0.3c-2.8,0.2-5.5-0.7-7.5-2.6l-12.7-11.8c-1.6-1.4-2.6-3.4-2.6-5.5l-3.6-206.5
			l3.2-57c0-0.7,0.3-1.4,0.8-2l0,0c3.2-4.1,7.7-6.9,12.8-7.9l2-0.4l1.8-14c0-2.4,1.8-4.5,4.1-4.8l13-2.2c1.3-0.2,1.5-0.2,2.8-0.2
			l139.8-1.2c0.9,0,1.5,0.7,1.4,1.6l-2.1,20.1c0,0,16.3,4.2,19.7,11.2c2.3,4.6-0.2,21.4-1.1,52.3c-3.3,71.8-9.3,177.5-12.1,206.1
			C292.9,608,283,609.1,283,609.1z"/>
		
			<ellipse transform="matrix(-9.140915e-02 0.9958 -0.9958 -9.140915e-02 719.1116 226.0814)" style="&st6;" cx="256.4" cy="441.1" rx="26.2" ry="25.1"/>
		
			<ellipse transform="matrix(-0.2111 0.9775 -0.9775 -0.2111 744.0192 282.742)" style="&st7;" cx="257.9" cy="441.6" rx="26.1" ry="23.3"/>
		<polygon style="&st6;" points="203.8,378.1 158.2,379.4 158,330.8 203.8,330.7 		"/>
		<path style="&st7;" d="M218.1,343.7l-9.6,0.1c-0.5,0-0.9-0.4-0.9-0.9l0-3.1c0-0.5,0.4-0.9,0.9-0.9l9.6,0c0.5,0,0.9,0.4,0.9,0.9
			l0,3C219,343.3,218.6,343.7,218.1,343.7z"/>
		<path style="&st7;" d="M219.7,351.5l-12.8,0.1c-0.7,0-1.2-0.3-1.2-0.7l0-2.5c0-0.4,0.6-0.7,1.2-0.7l12.8,0c0.7,0,1.2,0.3,1.2,0.7
			l0,2.4C220.9,351.2,220.3,351.5,219.7,351.5z"/>
		<polygon style="&st8;" points="220.1,363.8 207.1,363.9 207.1,360.9 220.1,360.9 		"/>
		<path style="&st7;" d="M219.1,367.8l-8.2,0.1c-0.4,0-0.8-0.2-0.8-0.6l0-1.9c0-0.3,0.4-0.6,0.8-0.6l8.2,0c0.4,0,0.8,0.2,0.8,0.6
			l0,1.9C219.8,367.6,219.5,367.8,219.1,367.8z"/>
		<polygon style="&st7;" points="220.1,373.7 207.2,373.8 207.1,370.7 220.1,370.7 		"/>
		<path style="&st7;" d="M219.3,377.9l-7.9,0.1c-0.4,0-0.8-0.3-0.8-0.6l0-2c0-0.3,0.3-0.6,0.8-0.6l7.9,0c0.4,0,0.8,0.3,0.8,0.6
			l0,1.9C220.1,377.7,219.7,377.9,219.3,377.9z"/>
		<g>
			<circle style="&st9;" cx="171" cy="361.4" r="4.1"/>
			<circle style="&st9;" cx="171" cy="361.2" r="8.3"/>
			<circle style="&st9;" cx="171" cy="361.4" r="12.4"/>
			<circle style="&st9;" cx="171" cy="361.3" r="17.4"/>
			<circle style="&st9;" cx="171" cy="361.4" r="23.1"/>
			<circle style="&st9;" cx="171.1" cy="361.3" r="33.7"/>
		</g>
		<path style="&st7;" d="M144.4,317.6l-2,20.7c0,0,0,0.1,0,0.1l4.6,17.6l0,36.1c0,1,0.7,3,1.7,3l132.6-4.8c0.9,0,1.7-2.1,1.7-3
			v-70.8c0-0.9-0.8-1.7-1.7-1.7l-135.2,1.3C145.2,316.1,144.5,316.7,144.4,317.6z M214.4,384.5l-52.5,1.7
			c-6.1,0.2-11.2-4.8-11.2-10.9v-38.8c0-6.9,5.6-12.6,12.6-12.6H214c6,0,9.9,4.3,9.9,10.3l0,38.4
			C223.9,378.5,220.3,384.3,214.4,384.5z"/>
		<polygon style="&st9;" points="205.8,378.9 157,379.8 156.8,370.9 205.6,369.9 		"/>
		<polygon style="&st10;" points="205.7,370 156.8,371 156.7,362.8 205.6,361.9 		"/>
		<polygon style="&st9;" points="205.9,361.7 156.9,362.6 156.7,354.4 205.7,353.5 		"/>
		<polygon style="&st9;" points="205.4,353.8 156.7,354.5 156.5,346.3 205.3,345.7 		"/>
		<polygon style="&st9;" points="205.1,345.7 156.9,346.6 156.8,338.7 204.9,337.8 		"/>
		
			<rect x="156.3" y="330" transform="matrix(0.9998 -2.028894e-02 2.028894e-02 0.9998 -6.7421 3.7369)" style="&st9;" width="48.9" height="8.2"/>
		<polygon style="&st6;" points="266.7,352.5 244.4,352.9 244.4,323 266.7,323 		"/>
		<line style="&st11;" x1="249.4" y1="322.9" x2="243.8" y2="330.2"/>
		<line style="&st11;" x1="254.1" y1="322.8" x2="243.9" y2="336"/>
		<line style="&st11;" x1="258.9" y1="322.6" x2="244.4" y2="341.2"/>
		<line style="&st11;" x1="267.4" y1="331.1" x2="249.8" y2="353.5"/>
		<line style="&st11;" x1="267" y1="338.1" x2="255" y2="353.5"/>
		<line style="&st11;" x1="267" y1="344.2" x2="260.1" y2="353.3"/>
		<line style="&st11;" x1="264.2" y1="322.4" x2="244.4" y2="347.6"/>
		<line style="&st11;" x1="267.3" y1="325" x2="244.9" y2="353.3"/>
		<line style="&st11;" x1="242.1" y1="345.2" x2="249.9" y2="353.9"/>
		<line style="&st11;" x1="257.9" y1="322.6" x2="267" y2="332.9"/>
		<line style="&st11;" x1="243.5" y1="340.5" x2="254.8" y2="353.3"/>
		<line style="&st11;" x1="243.9" y1="335.3" x2="260.2" y2="353.9"/>
		<line style="&st11;" x1="253.1" y1="322.8" x2="267" y2="338.9"/>
		<line style="&st11;" x1="244.1" y1="329.5" x2="266.3" y2="354.7"/>
		<line style="&st11;" x1="247.8" y1="322.4" x2="267.3" y2="344.5"/>
		<line style="&st11;" x1="244.1" y1="323.6" x2="267.3" y2="350.1"/>
		
			<ellipse transform="matrix(-7.907798e-03 1 -1 -7.907798e-03 654.8759 108.8323)" style="&st5;" cx="273.5" cy="379.3" rx="5.9" ry="5.5"/>
		
			<ellipse transform="matrix(3.286226e-02 0.9995 -0.9995 3.286226e-02 644.2076 92.8125)" style="&st7;" cx="274.1" cy="379.3" rx="5.5" ry="4.8"/>
		
			<ellipse transform="matrix(3.286231e-02 0.9995 -0.9995 3.286231e-02 646.0126 90.5391)" style="&st5;" cx="276.2" cy="379.1" rx="3.5" ry="3.4"/>
		
			<ellipse transform="matrix(3.286223e-02 0.9995 -0.9995 3.286223e-02 646.4427 90.0643)" style="&st7;" cx="276.7" cy="379.1" rx="3.5" ry="2.9"/>
		
			<ellipse transform="matrix(3.286223e-02 0.9995 -0.9995 3.286223e-02 646.6984 89.6942)" style="&st5;" cx="277" cy="379" rx="2.3" ry="1.9"/>
		
			<ellipse transform="matrix(-7.907798e-03 1 -1 -7.907798e-03 638.2752 126.9165)" style="&st5;" cx="256.2" cy="380.1" rx="5.9" ry="5.5"/>
		
			<ellipse transform="matrix(3.286226e-02 0.9995 -0.9995 3.286226e-02 628.3107 110.855)" style="&st7;" cx="256.9" cy="380.1" rx="5.5" ry="4.8"/>
		
			<ellipse transform="matrix(3.286231e-02 0.9995 -0.9995 3.286231e-02 630.1157 108.5816)" style="&st5;" cx="259" cy="379.9" rx="3.5" ry="3.4"/>
		
			<ellipse transform="matrix(3.286223e-02 0.9995 -0.9995 3.286223e-02 630.5459 108.1068)" style="&st7;" cx="259.4" cy="379.9" rx="3.5" ry="2.9"/>
		
			<ellipse transform="matrix(3.286223e-02 0.9995 -0.9995 3.286223e-02 630.8015 107.7367)" style="&st5;" cx="259.7" cy="379.8" rx="2.3" ry="1.9"/>
		
			<ellipse transform="matrix(-7.907798e-03 1 -1 -7.907798e-03 620.8929 145.2795)" style="&st5;" cx="238.4" cy="380.6" rx="5.9" ry="5.5"/>
		
			<ellipse transform="matrix(3.286226e-02 0.9995 -0.9995 3.286226e-02 611.5164 129.3282)" style="&st7;" cx="238.9" cy="380.6" rx="5.5" ry="4.8"/>
		
			<ellipse transform="matrix(3.286231e-02 0.9995 -0.9995 3.286231e-02 613.3214 127.0548)" style="&st5;" cx="241" cy="380.4" rx="3.5" ry="3.4"/>
		
			<ellipse transform="matrix(3.286223e-02 0.9995 -0.9995 3.286223e-02 613.7516 126.58)" style="&st7;" cx="241.5" cy="380.4" rx="3.5" ry="2.9"/>
		
			<ellipse transform="matrix(3.286223e-02 0.9995 -0.9995 3.286223e-02 614.0073 126.2098)" style="&st5;" cx="241.8" cy="380.4" rx="2.3" ry="1.9"/>
		
			<ellipse transform="matrix(-7.907798e-03 1 -1 -7.907798e-03 639.0389 92.6358)" style="&st5;" cx="273.6" cy="363.3" rx="5.9" ry="5.5"/>
		
			<ellipse transform="matrix(-7.907866e-03 1 -1 -7.907866e-03 639.7845 91.8457)" style="&st7;" cx="274.3" cy="363.3" rx="5.4" ry="4.6"/>
		
			<ellipse transform="matrix(-7.907798e-03 1 -1 -7.907798e-03 621.918 110.6367)" style="&st5;" cx="256.1" cy="363.8" rx="5.9" ry="5.5"/>
		
			<ellipse transform="matrix(-7.907866e-03 1 -1 -7.907866e-03 622.6636 109.8467)" style="&st7;" cx="256.8" cy="363.8" rx="5.4" ry="4.6"/>
		
			<ellipse transform="matrix(-7.907803e-03 1 -1 -7.907803e-03 623.9375 108.8209)" style="&st5;" cx="258" cy="363.9" rx="3.2" ry="3"/>
		
			<ellipse transform="matrix(-7.907798e-03 1 -1 -7.907798e-03 604.7881 128.6465)" style="&st5;" cx="238.6" cy="364.3" rx="5.9" ry="5.5"/>
		
			<ellipse transform="matrix(-7.907866e-03 1 -1 -7.907866e-03 605.5338 127.8564)" style="&st7;" cx="239.3" cy="364.3" rx="5.4" ry="4.6"/>
		
			<ellipse transform="matrix(-7.907803e-03 1 -1 -7.907803e-03 606.8077 126.8306)" style="&st5;" cx="240.5" cy="364.4" rx="3.2" ry="3"/>
		<g>
			<path style="&st8;" d="M213.2,352.8c-2.2,0.1-3.9,1.5-3.9,3.2c0,1.7,1.7,3,3.9,3.2L213.2,352.8z"/>
			<path style="&st7;" d="M213.9,352.8l0,6.4c2.2-0.1,3.9-1.5,3.9-3.2C217.8,354.3,216.1,352.9,213.9,352.8z"/>
		</g>
		<path style="&st7;" d="M220.1,336.2l-14.4,0.1c-0.8,0-1.4-0.5-1.4-1l0-3.6c0-0.6,0.6-1,1.4-1l14.4,0c0.8,0,1.4,0.5,1.4,1l0,3.5
			C221.5,335.7,220.9,336.2,220.1,336.2z"/>
		<polygon style="&st7;" points="296,413 151,419.8 151,399.5 296.8,393.9 		"/>
		<polygon style="&st7;" points="224.5,474.5 149.9,481 149.9,468.7 224.9,463.1 		"/>
		<path style="&st7;" d="M286.8,334.1c0,0,5.2,1.5,7.2,3.1c0.4,0.3,0.8,0.7,1.2,1c3.3,3,4.7,6.3,5.5,11.3c0.2,1,0.2,2,0.3,3
			c0.5,12.4-0.4,42.4-0.4,42.4l-0.6,19.1l-9.8,189.4c-0.1,1.5-0.4,2.7-1.4,3.8c-3.4,3.4-7.5,2.2-7.5,2.2s1.1,0,2.1-0.4
			c0.4-0.2,0.9-0.6,1.1-0.9l0.4-0.7c0.3-0.6,0.4-1,0.5-1.5c0.2-0.9,0.4-1.7,0.4-2.5c0,0,9.2-157.1,11-209.5c1.3-25.8,0.4-40,0.4-40
			c-1.4-12.4-3.4-12.9-4.7-14.6c-1.3-1.2-1.7-1.7-2.5-2.2c-0.7-0.4-3.3-1.8-3.3-1.8L286.8,334.1z"/>
		<path style="&st7;" d="M212.8,461.9l-7.7,0.4l0.3-1c1.4-4,2.3-8.1,2.8-12.2c0.6-5.9,0-10.5-1.7-17.7c-0.7-2.9-1.6-4.5-2-5.8v0
			l8.1-0.2l1.4,3.7c0.5,1.2,0.8,2.5,1.1,3.8c1.4,7,1.7,12,0.5,19.6C215.1,455.7,214.1,458.9,212.8,461.9L212.8,461.9z"/>
		<path style="&st7;" d="M222.7,461.6L215,462l0.3-1c1.4-4,2.3-8.1,2.8-12.2c0.6-5.9,0-10.5-1.7-17.7c-0.7-2.9-1.6-4.5-2-5.8h0
			l8.1-0.2l1.4,3.7c0.5,1.2,0.8,2.5,1.1,3.8c1.4,7,1.7,12,0.5,19.6C225,455.3,224.1,458.6,222.7,461.6L222.7,461.6z"/>
		<path style="&st7;" d="M202.8,462.7l-7.7,0.4l0.3-1c1.4-4,2.3-8.1,2.8-12.2c0.6-5.9,0-10.5-1.7-17.7c-0.7-2.9-1.6-4.5-2-5.8l0,0
			l8.1-0.2l1.4,3.7c0.5,1.2,0.8,2.5,1.1,3.8c1.4,7,1.7,12,0.5,19.6C205.1,456.4,204.1,459.6,202.8,462.7L202.8,462.7z"/>
		<path style="&st7;" d="M192.5,463.6l-7.7,0.4l0.3-1c1.4-4,2.3-8.1,2.8-12.2c0.6-5.9,0-10.5-1.7-17.7c-0.7-2.9-1.6-4.5-2-5.8v0
			l8.1-0.2l1.4,3.7c0.5,1.2,0.8,2.5,1.1,3.8c1.4,7,1.7,12,0.5,19.6C194.8,457.4,193.9,460.6,192.5,463.6L192.5,463.6z"/>
		<path style="&st7;" d="M182.3,464.1l-7.7,0.4l0.3-1c1.4-4,2.3-8.1,2.8-12.2c0.6-5.9,0-10.5-1.7-17.7c-0.7-2.9-1.6-4.5-2-5.8h0
			l8.1-0.2l1.4,3.7c0.5,1.2,0.8,2.5,1.1,3.8c1.4,7,1.7,12,0.5,19.6C184.6,457.8,183.6,461,182.3,464.1L182.3,464.1z"/>
		<path style="&st7;" d="M172,465.1l-7.7,0.4l0.3-1c1.4-4,2.3-8.1,2.8-12.2c0.6-5.9,0-10.5-1.7-17.7c-0.7-2.9-1.6-4.5-2-5.8l0,0
			l8.1-0.2l1.4,3.7c0.5,1.2,0.8,2.5,1.1,3.8c1.4,7,1.7,12,0.5,19.6C174.3,458.8,173.4,462,172,465.1L172,465.1z"/>
		<path style="&st7;" d="M161.7,465.5l-7.7,0.4l0.3-1c1.4-4,2.3-8.1,2.8-12.2c0.6-5.9,0-10.5-1.7-17.7c-0.7-2.9-1.6-4.5-2-5.8h0
			l8.1-0.2l1.4,3.7c0.5,1.2,0.8,2.5,1.1,3.8c1.4,7,1.7,12,0.5,19.6C164.1,459.2,163.1,462.4,161.7,465.5L161.7,465.5z"/>
		<path style="&st7;" d="M150.4,466.1c0,0-0.7-2-1-3.2c0.5-4.6-0.4-24.5-0.1-32.2c0.1-2.2,2.2-1.8,2.2-1.8l1.4,3.7
			c0.5,1.2,0.8,2.5,1.1,3.8c1.4,7,1.7,12,0.5,19.6c-0.5,3.3-1.5,7.1-2.9,10.2H150.4z"/>
		<polygon style="&st7;" points="228.1,470.7 225.9,470.9 227.4,415.6 229.7,415.7 		"/>
		<ellipse style="&st7;" cx="121.3" cy="391.7" rx="3.1" ry="5.1"/>
		
			<rect x="122.7" y="383.6" transform="matrix(0.9853 0.1708 -0.1708 0.9853 68.7325 -15.6109)" style="&st5;" width="4.8" height="16.2"/>
		<path style="&st5;" d="M313.6,515.6l-137.2,14.7c-2.2,0.2-5.7-3.2-6.8-5.3L146,482.6c-0.3-0.5,0-1.1,0.6-1.1l140.7-13
			c0.9-0.1,1.8,0.3,2.3,1.1l28.2,37.8C320,511.4,315.1,515.5,313.6,515.6z"/>
		<path style="&st7;" d="M315.2,510.5L179,525c-2.1,0.2-4.2-0.8-5.2-2.7l-22.2-38.7c-0.2-0.4,0-1,0.5-1l134.3-13.1
			c0.9-0.1,1.7,0.3,2.2,1l27.9,37.1C317.3,508.8,316.6,510.4,315.2,510.5z"/>
		<path style="&st7;" d="M260.2,526.3l-41.4,4.5c-0.5,0.1-0.9-0.3-0.9-0.8l0.2-4.1l43.3-4.7l-0.5,4.4
			C260.9,525.9,260.6,526.2,260.2,526.3z"/>
		
			<ellipse transform="matrix(-0.2963 0.9551 -0.9551 -0.2963 757.9462 326.3808)" style="&st5;" cx="258.7" cy="442.4" rx="22.4" ry="19.3"/>
		<path style="&st7;" d="M206.6,570.3c-3.2-21.5-3.6-29.2-3.6-42.8c1.1-0.1,1.8-0.2,3.3-0.4c1.4,24.9,4.6,48.8,10.8,69.4
			c0.3,1.1,0.7,2.1,1.3,3.1c3.3,5.9,6,0.8,7.5-3c-0.3,3.4-1.9,7.2-2.9,9.7c-0.2,0.4-0.4,0.8-0.8,1c-0.2,0.2-0.5,0.3-0.8,0.3
			c-0.5,0.1-1-0.1-1.5-0.4C215,604.2,210.1,589.6,206.6,570.3z"/>
		<polygon style="&st5;" points="225.3,463 149.8,468.1 150.1,466.3 226,461.3 		"/>
		<polygon style="&st5;" points="225.3,425.8 150.3,428.7 150.7,425.9 226,423.2 		"/>
		<polygon style="&st5;" points="225,457.5 149.5,462.1 149.8,459.4 225.6,454.9 		"/>
		<polygon style="&st5;" points="224.8,454.2 149.3,458.6 149.8,457.9 225.6,453.5 		"/>
		<path style="&st7;" d="M123.9,335.5c0,0,0.7-0.7,2.4-0.8c2.3-0.2,6,0.2,8.8,0.6c2.6,0.4,5.2,1.4,7.3,3.1
			c6.7,5.2,7.3,10.4,7.3,10.4l1.4,50.7v20.3l-2.9,201.6c0,1.5-0.2,3.1-0.8,4.6c-0.5,1.4-1.3,2.8-2.4,3.8h0c-0.3,0.3-0.7,0.5-1.1,0.7
			l0,0c-1.3,0.5-2.8,0.4-4-0.3l-2.4-1.5l3.3-0.3c0.6-0.1,1.1-0.6,1.5-1.1l0.7-2c0.2-1.2,0.2-2.6,0.2-3.7l2.4-221.8l-0.4-43.1
			c-0.6-9.5-2.6-12.7-4.5-15.3h0c-1-1-1.7-1.6-2.5-2.1c-0.7-0.5-1.4-0.8-2.2-1.2c-1.9-0.8-2.5-1-5-1.8
			C126.8,335,123.9,335.5,123.9,335.5z"/>
	</g>
	
		<ellipse transform="matrix(-7.907803e-03 1 -1 -7.907803e-03 641.0585 90.82)" style="&st5;" cx="275.5" cy="363.4" rx="3.2" ry="3"/>
	
		<ellipse transform="matrix(-7.907803e-03 1 -1 -7.907803e-03 641.0585 90.82)" style="&st8;" cx="275.5" cy="363.4" rx="3.2" ry="3"/>
</g>
</svg>
